<?xml version="1.0" standalone="no"?>
<!DOCTYPE svg PUBLIC "-//W3C//DTD SVG 1.1//EN" "http://www.w3.org/Graphics/SVG/1.1/DTD/svg11.dtd" >
<svg xmlns="http://www.w3.org/2000/svg">
<metadata>Generated by IcoMoon</metadata>
<defs>
<font id="icon-large" horiz-adv-x="1024">
<font-face units-per-em="1024" ascent="960" descent="-64" />
<missing-glyph horiz-adv-x="1024" />
<glyph unicode="&#x20;" horiz-adv-x="512" d="" />
<glyph unicode="&#xe600;" glyph-name="large-360-hinge" d="M57.408 319.776c1.504 0 4.544-1.536 6.048-1.536 10.592 0 19.712 6.048 22.72 16.672 7.584 28.8 21.216 54.528 37.888 78.816 7.584 10.56 4.544 24.224-4.544 31.776-10.592 7.584-24.256 4.544-31.808-4.544-21.216-28.768-36.352-60.64-45.44-93.952-4.544-10.496 3.040-24.192 15.136-27.232v0zM219.52 37.952c-27.296 13.632-50.016 30.304-71.2 51.52-9.088 9.088-24.256 9.088-33.344 0s-9.088-24.256 0-33.344c24.256-25.76 53.024-45.44 84.832-60.64 3.040-1.504 6.048-3.008 10.592-3.008 9.088 0 16.672 4.544 21.216 13.632 4.544 12.128 0 25.76-12.096 31.84v0zM561.952 369.76c4.544-9.056 12.128-13.632 21.184-13.632 3.072 0 6.048 0 9.088 1.504 12.16 4.576 16.672 19.712 12.16 30.304-13.664 31.808-34.88 60.608-59.104 86.368-9.088 9.088-24.256 9.088-33.344 0s-9.088-24.256 0-33.312c21.216-19.712 37.888-43.936 50.016-71.2v-0.032zM77.088 248.576c-1.504 12.128-12.128 22.752-24.256 21.248-12.128-1.536-22.72-12.16-21.216-24.256 1.504-36.352 10.592-69.696 24.256-101.504 4.544-9.088 12.128-15.136 21.216-15.136 3.040 0 6.048 0 9.088 1.504 12.128 4.544 16.672 19.68 12.128 30.304-12.128 28.768-19.712 57.568-21.216 87.872v-0.032zM472.512 506.112c6.048 12.128 1.504 25.76-10.592 31.808-31.808 15.136-65.152 24.256-100 28.768-13.632 1.504-24.256-7.584-25.76-21.216-1.504-12.128 7.584-24.256 21.216-25.76 30.304-3.008 57.568-10.592 84.832-24.256 3.040-1.504 6.048-3.040 10.592-3.040 7.584 0 15.136 4.544 19.68 13.632l0.032 0.064zM392.224 19.776c-13.632-3.040-28.768-6.016-43.936-7.584-15.168-1.536-28.8-1.504-43.936 0-12.128 1.504-24.256-7.552-25.76-21.216-1.504-12.128 7.584-24.256 21.216-25.76 10.592-1.504 21.216-1.504 30.304-1.504 7.584 0 13.632 0 21.216 1.504 18.176 1.504 34.848 4.544 51.52 7.584 12.128 3.040 19.712 15.136 16.672 28.736-1.504 13.664-15.136 21.248-27.296 18.24v0zM593.76 127.36c0 6.016-4.576 12.128-9.12 15.136-4.544 4.544-10.56 6.048-16.672 4.544l-90.912-10.592c-12.128-1.504-21.216-13.632-19.712-25.76s13.632-21.216 25.76-21.216l36.352 4.544c-13.632-15.136-28.768-27.264-45.44-39.36-10.592-7.584-13.632-21.216-6.048-31.808 4.544-6.048 12.128-10.592 19.712-10.592 4.544 0 9.088 1.536 13.632 4.544 19.68 13.664 37.888 30.304 54.56 47.008l4.576-33.344c1.504-12.16 12.128-21.216 22.688-21.216 1.504 0 1.504 0 3.072 0 12.128 1.504 21.184 13.632 21.184 25.76l-13.632 92.352zM990.656 275.84c-4.544 7.584-12.128 12.128-21.216 12.128h-627.232l-192.416 624.224c-3.040 7.584-9.088 13.632-16.672 15.136-9.088 3.008-18.176 0-22.72-6.048l-34.848-37.888c-6.048-6.048-7.584-15.136-4.544-22.72v0c0 0 195.424-628.768 196.96-634.784 1.536-6.048 10.592-28.8 39.392-28.8v0h634.816c7.552 0 15.136 3.040 19.68 10.592l30.304 43.904c1.536 6.048 3.104 16.672-1.504 24.256zM307.392 227.36c-13.632 0-25.76 10.56-25.76 25.76 0 13.632 10.592 25.76 25.76 25.76 13.632 0 25.76-10.592 25.76-25.76s-12.128-25.76-25.76-25.76z" />
<glyph unicode="&#xe601;" glyph-name="large-add" d="M963.52 928.512h-902.24c-16.416 0-29.76-13.344-29.76-29.76v-903.040c0-16.416 13.344-29.76 29.76-29.76h902.144c16.416 0 29.76 13.344 29.76 29.76v903.040c0 16.416-13.344 29.76-29.664 29.76zM810.048 401.504c-8.096-8.096-19.136-12.96-31.456-12.96h-221.152v-229.216c0-12.192-4.992-23.36-12.96-31.456-8.064-8.096-19.136-12.96-31.424-12.96-24.512 0-44.416 19.872-44.416 44.416v229.216h-223.84c-24.512 0-44.416 19.904-44.416 44.416s19.904 44.416 44.416 44.416h223.84v215.744c0 24.512 19.872 44.416 44.416 44.416s44.416-19.904 44.416-44.416v-215.744h221.152c24.512 0 44.416-19.872 44.416-44.416 0-12.192-4.992-23.36-12.96-31.424z" />
<glyph unicode="&#xe602;" glyph-name="large-alertcomplete" d="M968.608 928.512h-914.56c-12.416 0-22.528-10.112-22.528-22.528v-915.328c0-12.416 10.112-22.528 22.528-22.528h914.432c12.288 0 22.528 10.112 22.528 22.528v915.328c0.128 12.416-10.112 22.528-22.4 22.528zM769.856 597.472l-300.672-352.416c-8.832-10.24-21.504-15.872-34.72-15.872-10.112 0-19.968 3.328-27.904 9.472l-142.528 110.912c-19.84 15.488-23.328 44.16-7.936 63.904 8.704 11.136 21.76 17.536 36 17.536 10.112 0 19.968-3.456 27.904-9.6l108.192-84.128 272.512 319.36c15.744 18.304 45.696 20.736 64.16 4.992 18.944-16.256 21.376-45.088 4.992-64.16z" />
<glyph unicode="&#xe603;" glyph-name="large-alerterror" d="M971.52 668.544l-238.144 238.144c-13.088 13.088-34.24 21.792-52.576 21.792h-336.768c-18.336 0-39.648-8.576-52.576-21.792l-238.144-238.144c-13.088-12.96-21.792-34.24-21.792-52.576v-336.768c0-18.336 8.576-39.488 21.792-52.576l238.144-238.144c12.96-13.216 34.24-21.792 52.576-21.792h336.768c18.336 0 39.488 8.576 52.576 21.792l238.144 238.144c13.216 13.088 21.792 34.24 21.792 52.576v336.768c0 18.336-8.576 39.648-21.792 52.576zM741.44 395.008h-456.16c-28.992 0-52.576 23.584-52.576 52.576s23.456 52.576 52.576 52.576h456.16c28.992 0 52.576-23.456 52.576-52.576 0-28.992-23.584-52.576-52.576-52.576z" />
<glyph unicode="&#xe604;" glyph-name="large-alertinfo" d="M969.984 928.512h-915.968c-12.48 0-22.528-10.144-22.528-22.528v-916.928c0-12.48 10.144-22.528 22.528-22.528h915.968c12.48 0 22.528 10.144 22.528 22.528v916.928c0 12.384-10.080 22.528-22.528 22.528zM520.224 678.624c23.072 0 41.76-18.72 41.76-41.76s-18.72-41.76-41.76-41.76c-23.072 0-41.76 18.72-41.76 41.76s18.72 41.76 41.76 41.76zM599.136 220.096c-0.256 0-0.544 0.096-0.896 0.096l-73.856-0.096c-28.96 0-41.44 12.192-41.6 41.952l-0.352 192.768c0 9.28-4.896 13.632-13.632 13.632h-23.616c-0.352 0-0.8-0.096-1.152-0.096-18.432 0-33.312 14.88-33.312 33.312 0 18.336 14.88 33.312 33.312 33.312v0.096l74.848 0.096c28.96 0.096 41.44-12.832 41.44-41.952l0.352-193.472c0-8.736 4.992-13.632 13.632-13.632h19.328c1.792 0.256 3.456 0.512 5.344 0.512 18.432 0 33.312-14.88 33.312-33.312 0.16-18.336-14.688-33.216-33.152-33.216z" />
<glyph unicode="&#xe605;" glyph-name="large-alertnotice" d="M986.816 28.352l-422.080 880.864c-13.696 25.856-56.832 25.6-70.528 0l-457.792-880.864c-6.784-12.544-6.528-27.776 0.512-40.064 7.040-12.416 19.84-19.84 33.536-19.84h882.144c13.824 0 26.496 7.424 33.536 19.84s7.424 27.52 0.64 40.064zM477.952 566.24c0 24.96 20.224 45.184 45.184 45.184s45.184-20.224 45.184-45.184v-259.232c0-24.96-20.224-45.184-45.184-45.184s-45.184 20.224-45.184 45.184v259.232zM523.008 116.8c-26.496 0-47.872 21.376-47.872 47.872 0 26.368 21.376 47.872 47.872 47.872s47.872-21.504 47.872-47.872c0.128-26.496-21.376-47.872-47.872-47.872z" />
<glyph unicode="&#xe606;" glyph-name="large-audicard" d="M985.344 630.144c-4.288 4.192-9.984 6.624-15.904 6.624v0l-753.536-0.928v47.904c0 11.936-4.8 23.456-13.248 31.904l-94.112 93.984c-17.632 17.632-46.176 17.632-63.808 0s-17.632-46.176 0-63.808l80.832-80.864v-561.664c0-24.864 20.192-45.184 45.152-45.184s45.152 20.224 45.152 45.184v104.512l191.36 0.192v-87.776c0-12.416 10.080-22.528 22.528-22.528h487.744c12.448 0 22.528 10.080 22.528 22.528v88.416h29.344c12.448 0 22.528 10.048 22.528 22.496v382.912c0 6.016-2.336 11.712-6.624 16l0.064 0.096zM308.064 264.224c0-10.912-8.864-19.776-19.776-19.776h-43.232c-10.912 0-19.776 8.864-19.776 19.776v111.040c0 10.944 8.864 19.776 19.776 19.776h43.232c10.912 0 19.776-8.832 19.776-19.776v-111.040zM310.912 454.272c0-10.912-8.864-19.776-19.776-19.776h-46.080c-10.912 0-19.776 8.864-19.776 19.776v110.912c0 10.912 8.864 19.776 19.776 19.776h46.080c10.912 0 19.776-8.864 19.776-19.776v-110.912zM890.432 163.616c0-12.448-10.048-22.528-22.528-22.528h-387.84c-12.416 0-22.528 10.080-22.528 22.528v409.12c0 12.416 10.080 22.528 22.528 22.528h387.84c12.48 0 22.528-10.080 22.528-22.528v-409.12zM502.592 186.24h342.656v363.968h-342.656v-363.968zM718.624 469.344c3.2 5.408 10.016 7.232 15.36 4.064 2.496-1.44 60.192-35.488 60.192-105.632 0.192-1.984 4.672-69.728-62.304-104.224-1.632-0.8-3.36-1.184-5.088-1.184-4.064 0-8.064 2.24-10.080 6.112-2.816 5.504-0.608 12.32 4.896 15.2 53.472 27.424 50.24 81.056 50.016 83.296 0 57.728-46.88 85.76-48.896 86.848-5.312 3.168-7.168 10.080-4.096 15.52v0zM719.072 367.328c0 30.688-25.184 45.44-25.408 45.664-5.408 3.040-7.232 9.984-4.192 15.36 3.168 5.408 9.984 7.232 15.392 4.192 1.536-0.832 36.672-21.6 36.672-64.32 0.096-0.896 3.008-42.624-38.112-63.584-1.632-0.832-3.36-1.248-5.088-1.248-4.096 0-8.096 2.24-10.080 6.112-2.848 5.504-0.64 12.384 4.896 15.2 27.84 14.176 25.92 42.304 25.92 42.624v0zM549.824 393.76c0 6.496 5.056 12.512 14.432 12.512h30.016l51.488 43.328c0.992 0.928 2.304 1.344 3.648 1.344h3.296c3.168 0 5.568-2.528 5.568-5.6v-152c0-3.168-2.496-5.6-5.568-5.6h-3.008c-1.312 0-3.040 0.512-4.064 1.344l-51.488 43.328h-29.44c-10.432 0-15.008 5.824-15.008 11.232l0.128 50.144v-0.032z" />
<glyph unicode="&#xe607;" glyph-name="large-audiospeaker" d="M509.632 817.472h-15.008c-5.12 0-10.112-1.856-14.016-5.12l-234.624-197.792h-137.568c-40.096 0-61.728-25.536-61.728-49.984v-230.272c0-22.624 19.36-47.072 62.048-47.072h137.248l234.624-197.824c3.904-3.264 9.024-5.12 14.24-5.12h14.784c11.936 0 21.664 9.696 21.664 21.632v689.92c0 11.936-9.696 21.632-21.664 21.632zM819.136 447.456c-0.768 162.912-134.976 242.016-140.704 245.28-20.768 11.936-47.2 4.768-59.136-15.872-11.936-20.768-4.736-47.168 15.872-59.104 0.96-0.544 97.376-57.376 97.376-171.712 0-1.184 0-2.272 0.128-3.328 0.064-1.12 7.296-108.896-99.264-163.712-21.312-10.944-29.696-36.992-18.816-58.176 7.68-14.88 22.816-23.488 38.592-23.488 6.592 0 13.376 1.504 19.776 4.8 149.536 76.736 147.264 225.184 146.144 245.376v-0.064zM974.976 446.144c-0.736 268-221.376 398.080-230.72 403.52-20.768 11.936-47.168 4.8-59.104-15.872-11.936-20.768-4.768-47.168 15.872-59.104 1.856-1.088 187.328-110.4 187.328-329.92 0-0.96 0-2.176 0.096-3.264 0.64-8.704 12.736-214.208-192.032-319.328-21.312-10.944-29.664-37.056-18.688-58.24 7.712-14.88 22.848-23.424 38.592-23.424 6.624 0 13.376 1.504 19.68 4.8 248.576 127.424 240.64 374.56 238.976 400.896v-0.064z" />
<glyph unicode="&#xe608;" glyph-name="large-award" d="M916 806.912c-36.928 33.28-96.448 29.056-143.008 18.368 0.448 12.064 0.672 24.288 0.8 36.896h4.64c8.512 0 15.2 10.016 15.2 22.368v21.6c0 12.352-6.816 22.368-15.2 22.368h-527.52c-8.352 0-15.168-10.016-15.168-22.368v-21.6c0-12.352 6.688-22.368 15.168-22.368h4.64c0.128-12.608 0.416-24.8 0.64-36.896-46.4 10.656-105.92 14.912-142.944-18.368-35.328-31.872-40.48-88.8-15.168-169.152 48.064-153.344 184.96-252.448 273.792-302.592 32.512-56.288 59.136-95.616 59.136-158.368 0-150.016-145.248-22.336-145.248-212.32h457.856c0 189.856-145.248 62.176-145.248 212.32 0 62.752 26.752 102.048 59.136 158.368 88.672 50.112 225.696 149.344 273.824 302.624 25.184 80.352 20 137.28-15.328 169.12v0zM141.376 651.36c-13.376 42.56-23.776 98.336 2.304 121.856 23.904 21.6 74.432 15.168 114.4 4.64 6.688-133.024 25.312-227.264 48.064-297.568 0 0 10.816-31.232 25.056-65.152-74.048 52.16-156.8 130.816-189.824 236.224v0zM887.936 651.36c-32.992-105.408-115.808-184.064-189.76-236.224 14.176 33.92 25.056 65.152 25.056 65.152 22.752 70.432 41.376 164.544 47.936 297.568 40 10.528 90.496 16.96 114.432-4.64 26.176-23.52 15.68-79.328 2.24-121.856h0.096z" />
<glyph unicode="&#xe609;" glyph-name="large-battery" d="M669.568 847.872h-32.256v57.92c0 12.512-10.176 22.72-22.72 22.72h-210.88c-12.512 0-22.72-10.208-22.72-22.72v-57.92h-32.256c-12.512 0-22.72-10.208-22.72-22.72v-830.912c0-12.512 10.080-22.688 22.72-22.688h320.864c12.544 0 22.72 10.176 22.72 22.688v831.040c0 12.512-10.208 22.592-22.752 22.592v0zM586.016 454.56l-104.384-161.12c-2.048-2.688-3.456-4.48-6.24-4.064-2.784 0.448-4.864 2.944-4.736 5.76l33.568 124.992-64.672-0.128c-2.432 0.128-4.064-0.128-5.6 1.28s-2.176 3.52-1.536 5.6l112.64 153.088c2.56 3.456 3.424 4.576 6.24 4.064 2.816-0.384 4.864-2.944 4.864-5.728l-33.056-116.736 56.096-0.128c2.048 0.384 3.936-0.128 5.504-1.536 1.312-1.408 1.952-3.456 1.312-5.344v0zM592 847.872h-165.6v35.328h165.696v-35.328h-0.096z" />
<glyph unicode="&#xe60a;" glyph-name="large-bell" d="M985.888 177.152l-68.672 58.784v35.328c0 11.872-9.632 21.536-21.504 21.536h-766.432c-11.904 0-21.536-9.664-21.536-21.536v-35.328l-68.704-58.784c-6.848-5.888-9.344-15.36-6.208-23.808s11.2-14.048 20.192-14.048h918.88c8.96 0 17.024 5.6 20.192 14.048 3.168 8.512 0.64 17.952-6.208 23.808zM465.12 670.56h94.72c23.776 0 43.104 19.296 43.104 43.072s-19.328 43.072-43.072 43.072h-94.72c-23.808 0-43.072-19.328-43.072-43.072 0-23.776 19.296-43.072 43.040-43.072v0zM129.28 338.976h766.4c11.872 0 21.504 9.632 21.504 21.504v38.976c0 3.424-0.8 6.784-2.336 9.856l-1.376 2.656c-0.384 0.736-0.832 1.472-1.28 2.144-89.632 133.856-239.040 213.76-399.712 213.76s-310.112-79.904-399.744-213.76c-0.384-0.544-0.736-1.184-1.056-1.792l-1.44-2.688c-1.696-3.168-2.592-6.688-2.56-10.208l0.064-38.944c0.032-11.872 9.664-21.504 21.536-21.504z" />
<glyph unicode="&#xe60b;" glyph-name="large-cables" d="M253.856 677.376v-241.44c0-64.992 52.832-117.856 117.824-117.856h280.64c64.992 0 117.824 52.832 117.824 117.856v241.44h-516.288zM295.136 928.8v-205.152h433.568v205.152h-433.568zM479.136 783.52h-45.632v81.024h45.632v-81.024zM590.24 783.52h-45.696v81.024h45.696v-81.024zM687.328 277.344h-350.56c-0.256-2.304-0.64-4.64-0.64-7.072 0-40.512 32.8-73.44 73.472-73.44h58.080v-185.44c0-24.48 19.744-44.224 44.224-44.224 24.448 0 44.192 19.744 44.192 44.224v185.44h58.368c40.512 0 73.44 32.768 73.44 73.44 0.032 2.432-0.48 4.768-0.576 7.072z" />
<glyph unicode="&#xe60c;" glyph-name="large-calculator" d="M857.056 928.512h-689.984c-12.544 0-22.688-10.112-22.688-22.56v-915.712c0-12.448 10.112-22.56 22.56-22.56h690.112c12.416 0 22.56 10.112 22.56 22.56v915.712c0.128 12.416-9.984 22.56-22.56 22.56v0zM335.52 62.752c0-12.416-10.112-22.56-22.56-22.56h-79.808c-12.416 0-22.56 10.112-22.56 22.56v41.376c0 12.448 10.112 22.56 22.56 22.56h79.808c12.416 0 22.56-10.112 22.56-22.56v-41.376zM335.52 206.24c0-12.448-10.112-22.56-22.56-22.56h-79.808c-12.416 0-22.56 10.112-22.56 22.56v41.376c0 12.416 10.112 22.56 22.56 22.56h79.808c12.416 0 22.56-10.112 22.56-22.56v-41.376zM335.52 351.264c0-12.416-10.112-22.56-22.56-22.56h-79.808c-12.416 0-22.56 10.112-22.56 22.56v41.376c0 12.448 10.112 22.56 22.56 22.56h79.808c12.416 0 22.56-10.080 22.56-22.56v-41.376zM335.52 530.336c0-12.416-10.112-22.56-22.56-22.56h-79.808c-12.416 0-22.56 10.112-22.56 22.56v41.376c0 12.416 10.112 22.56 22.56 22.56h79.808c12.416 0 22.56-10.112 22.56-22.56v-41.376zM496.544 62.752c0-12.416-10.112-22.56-22.56-22.56h-79.808c-12.416 0-22.56 10.112-22.56 22.56v41.376c0 12.448 10.112 22.56 22.56 22.56h79.808c12.416 0 22.56-10.112 22.56-22.56v-41.376zM496.544 206.24c0-12.448-10.112-22.56-22.56-22.56h-79.808c-12.416 0-22.56 10.112-22.56 22.56v41.376c0 12.416 10.112 22.56 22.56 22.56h79.808c12.416 0 22.56-10.112 22.56-22.56v-41.376zM496.544 351.264c0-12.416-10.112-22.56-22.56-22.56h-79.808c-12.416 0-22.56 10.112-22.56 22.56v41.376c0 12.448 10.112 22.56 22.56 22.56h79.808c12.416 0 22.56-10.080 22.56-22.56v-41.376zM657.44 62.752c0-12.416-10.112-22.56-22.56-22.56h-79.808c-12.448 0-22.56 10.112-22.56 22.56v41.376c0 12.448 10.112 22.56 22.56 22.56h79.808c12.416 0 22.56-10.112 22.56-22.56v-41.376zM657.44 206.24c0-12.448-10.112-22.56-22.56-22.56h-79.808c-12.448 0-22.56 10.112-22.56 22.56v41.376c0 12.416 10.112 22.56 22.56 22.56h79.808c12.416 0 22.56-10.112 22.56-22.56v-41.376zM657.44 351.264c0-12.416-10.112-22.56-22.56-22.56h-79.808c-12.448 0-22.56 10.112-22.56 22.56v41.376c0 12.448 10.112 22.56 22.56 22.56h79.808c12.416 0 22.56-10.080 22.56-22.56v-41.376zM657.824 530.336c0-12.416-10.112-22.56-22.56-22.56h-79.808c-12.416 0-22.56 10.112-22.56 22.56v41.376c0 12.416 10.112 22.56 22.56 22.56h79.808c12.448 0 22.56-10.112 22.56-22.56v-41.376zM818.432 62.752c0-12.416-10.080-22.56-22.56-22.56h-79.776c-12.416 0-22.56 10.112-22.56 22.56v184.864c0 12.416 10.080 22.56 22.56 22.56h79.776c12.448 0 22.56-10.112 22.56-22.56v-184.864zM818.432 351.264c0-12.416-10.080-22.56-22.56-22.56h-79.776c-12.416 0-22.56 10.112-22.56 22.56v41.376c0 12.448 10.080 22.56 22.56 22.56h79.776c12.448 0 22.56-10.080 22.56-22.56v-41.376zM818.432 530.336c0-12.416-10.080-22.56-22.56-22.56h-79.776c-12.416 0-22.56 10.112-22.56 22.56v41.376c0 12.416 10.080 22.56 22.56 22.56h79.776c12.448 0 22.56-10.112 22.56-22.56v-41.376zM820.544 714.688c0-12.416-10.080-22.56-22.56-22.56h-576.992c-12.416 0-22.56 10.112-22.56 22.56v130.432c0 12.416 10.112 22.56 22.56 22.56h576.992c12.416 0 22.56-10.112 22.56-22.56v-130.432z" />
<glyph unicode="&#xe60d;" glyph-name="large-calendar" d="M993.088 702.912c0 12.288-10.016 22.304-22.336 22.304v0l-916.96-0.352c-5.856 0-11.616-2.368-15.776-6.528s-6.528-9.824-6.528-15.776l0.224-659.328c0-5.888 2.368-11.616 6.528-15.808 4.16-4.128 9.824-6.496 15.776-6.496v0l916.96 0.352c12.288 0 22.208 10.016 22.208 22.336l-0.096 659.296zM898.72 93.632l-772.736-0.352c-5.856 0-11.616 2.368-15.776 6.528s-6.528 9.824-6.528 15.744l-0.224 515.616c0 12.288 9.92 22.304 22.208 22.304l772.736 0.352c5.856 0 11.584-2.368 15.776-6.528 4.16-4.16 6.496-9.824 6.496-15.776l0.256-515.584c0.128-12.288-9.92-22.336-22.208-22.304v0zM148.064 608.096h213.312v-125.6h-213.312v125.6zM405.696 608.096h213.312v-125.6h-213.312v125.6zM663.328 608.096h213.312v-125.6h-213.312v125.6zM148.064 435.040h213.312v-125.6h-213.312v125.6zM405.696 435.040h213.312v-125.6h-213.312v125.6zM148.064 263.776h213.312v-125.6h-213.312v125.6zM405.696 263.776h213.312v-125.6h-213.312v125.6zM663.328 435.040h213.312v-125.6h-213.312v125.6zM970.976 866.496h-111.968v-35.744c0-4.16-3.36-7.552-7.552-7.552h-70.56c-4.128 0-7.52 3.392-7.52 7.552v35.744h-522.144v-35.744c0-4.16-3.392-7.552-7.552-7.552h-70.56c-4.16 0-7.552 3.392-7.552 7.552v35.744h-111.52c-12.288 0-22.208-9.92-22.208-22.304v-56.704c0-12.288 9.92-22.304 22.336-22.304h916.96c12.32 0 22.336 9.92 22.336 22.304v56.704c-0.096 12.416-10.144 22.304-22.4 22.304h-0.096z" />
<glyph unicode="&#xe60e;" glyph-name="large-carryingcase" d="M867.232 508.32h-30.496v-388.896c0-20.992-16.928-37.952-37.92-37.952h-210.336c0-0.128 0-0.128 0-0.256v-36.896c0-17.248-15.808-30.208-36.864-30.208h-76.768c-21.088 0-36.896 12.992-36.896 30.208v36.896c0 0.128 0 0.128 0 0.256h-210.496c-20.96 0-37.92 17.056-37.92 37.952v388.896h-32.768c-10.304 0-18.656-8.352-18.656-18.784v-505.024c0-10.272 8.352-18.656 18.656-18.656h710.464c10.304 0 18.688 8.384 18.688 18.656v505.152c0.096 10.272-8.256 18.656-18.688 18.656v0zM231.296 508.32v-385.184h240.288v-74.432h83.584v74.432h239.936v385.184h-563.808zM808.192 554.496l-477.12 348.544v-155.2l263.424-193.376 213.696 0.032zM165.472 558.976c0-1.536 0.128-3.072 0.512-4.48h125.888c0.256 1.408 0.512 2.976 0.512 4.48v247.744c0 0.512-0.128 1.024-0.128 1.408l0.128 122.016c-69.184 0-127.008-56.192-127.008-125.344h0.128l-0.032-245.824z" />
<glyph unicode="&#xe60f;" glyph-name="large-cart" d="M880.096 379.52l112.704 295.168c2.624 6.944 1.728 14.784-2.496 20.896-4.256 6.112-11.2 9.792-18.688 9.792v0l-729.12-0.288-29.632 58.752c-3.84 7.648-11.648 12.448-20.192 12.448l-138.528-0.064c-12.48 0-22.656-10.144-22.624-22.656s10.144-22.624 22.656-22.624l124.576 0.064 29.6-58.72c0 0 0-0.032 0.032-0.032l148.768-295.104c0 0 0.032 0 0.032-0.064l53.184-105.44c-8.672-3.936-16.736-9.248-23.648-16.16-15.008-15.040-23.296-35.008-23.296-56.256 0-43.84 35.68-79.52 79.52-79.52h0.032c43.872 0 79.52 35.712 79.52 79.552 0 12.32-3.072 23.84-8.064 34.272l216.256 0.096c-4.992-10.432-8.064-21.952-8.064-34.272 0-43.84 35.712-79.456 79.552-79.456v0c43.872 0 79.552 35.68 79.552 79.552-0.064 42.272-33.312 76.64-75.008 79.072-1.472 0.288-3.008 0.448-4.576 0.448l-344.736-0.128-43.296 85.888 444.928 0.192c9.376 0 17.824 5.824 21.12 14.56l-0.064 0.032zM802.112 233.76c18.912 0 34.24-15.328 34.24-34.24 0-18.88-15.328-34.208-34.24-34.272-18.88 0-34.24 15.36-34.272 34.24 0 18.848 15.36 34.24 34.272 34.272zM418.688 223.52c6.464 6.464 15.104 10.048 24.256 10.048 18.88 0 34.272-15.36 34.272-34.24s-15.392-34.24-34.272-34.24c-18.88 0-34.24 15.328-34.24 34.208 0 9.184 3.552 17.792 9.984 24.224v0zM802.112 474.656h-386.912c-12.48 0-22.656 10.144-22.656 22.656s10.144 22.656 22.656 22.656h386.912c12.512 0 22.688-10.144 22.688-22.656s-10.144-22.656-22.688-22.656zM371.168 562.944v0c-12.512 0-22.656 10.112-22.688 22.624s10.112 22.656 22.624 22.656l482.816 0.192c12.512 0 22.688-10.112 22.688-22.624s-10.112-22.656-22.624-22.656l-482.816-0.192z" />
<glyph unicode="&#xe610;" glyph-name="large-chat" d="M995.264 783.264c0 6.080-2.368 11.776-6.624 16.096-4.256 4.256-10.048 6.656-16.128 6.656v0l-918.336-0.384c-12.64 0-22.752-10.208-22.752-22.752l0.192-484.768c0-6.016 2.4-11.744 6.656-16.064 4.288-4.256 10.048-6.72 16.128-6.72v0h102.272l0.096-162.816c0-9.952 6.56-18.816 16.096-21.696 2.208-0.672 4.448-0.928 6.656-0.928 7.424 0 14.56 3.616 18.88 10.016l118.176 175.552 656.32 0.256c12.512 0 22.752 10.24 22.752 22.752l-0.384 484.8z" />
<glyph unicode="&#xe611;" glyph-name="large-checkmark" d="M357.28 51.2c-9.728 0-19.552 3.168-27.712 9.504l-280.576 218.24c-19.776 15.36-23.328 43.808-7.936 63.456 15.36 19.776 43.808 23.328 63.488 7.936l246.496-191.68 564.224 660.928c16.192 19.040 44.832 21.248 63.808 5.024 19.008-16.224 21.216-44.768 4.992-63.808l-592.224-693.76c-8.992-10.464-21.664-15.904-34.528-15.904v0l-0.032 0.064z" />
<glyph unicode="&#xe612;" glyph-name="large-chipset" d="M972.288 928.512h-364.672c-9.12 0-17.344-5.504-20.928-13.984-3.456-8.48-1.536-18.24 4.896-24.672l364.8-363.776c4.384-4.384 10.144-6.56 15.936-6.56 2.976 0 5.92 0.512 8.608 1.664 8.48 3.456 13.984 11.68 13.984 20.928v363.776c0 12.448-10.144 22.592-22.624 22.592zM503.456 921.952c-4.256 4.256-10.016 6.56-15.936 6.56h-433.408c-12.448 0-22.624-10.144-22.624-22.592v-918.176c0-12.448 10.144-22.624 22.624-22.624h918.176c12.448 0 22.624 10.144 22.624 22.624v435.584c0 6.016-2.432 11.808-6.688 16.064l-484.768 482.592zM598.112 548.416c12.448 0 22.624-10.144 22.624-22.592v-158.24c0-12.448-10.144-22.592-22.624-22.592h-158.24c-12.448 0-22.624 10.144-22.624 22.592v158.24c0 12.448 10.144 22.592 22.624 22.592h158.24zM442.144 860.416c17.216 0 31.232-13.984 31.232-31.232s-13.984-31.232-31.232-31.232-31.232 13.984-31.232 31.232c0 17.216 13.984 31.232 31.232 31.232zM442.144 707.296c17.216 0 31.232-13.984 31.232-31.232s-13.984-31.232-31.232-31.232-31.232 13.984-31.232 31.232c0 17.216 13.984 31.232 31.232 31.232zM136.192 32.416c-17.216 0-31.232 13.984-31.232 31.232s13.984 31.232 31.232 31.232 31.232-13.984 31.232-31.232c-0.128-17.344-13.984-31.232-31.232-31.232zM136.192 185.536c-17.216 0-31.232 13.984-31.232 31.232s13.984 31.232 31.232 31.232c17.216 0 31.232-13.984 31.232-31.232-0.128-17.344-13.984-31.232-31.232-31.232zM136.192 338.656c-17.216 0-31.232 13.984-31.232 31.232s13.984 31.232 31.232 31.232 31.232-14.016 31.232-31.232c-0.128-17.216-13.984-31.232-31.232-31.232zM136.192 491.744c-17.216 0-31.232 13.984-31.232 31.232s13.984 31.232 31.232 31.232 31.232-13.984 31.232-31.232c-0.128-17.216-13.984-31.232-31.232-31.232zM136.192 644.864c-17.216 0-31.232 13.984-31.232 31.232s13.984 31.232 31.232 31.232c17.216 0 31.232-13.984 31.232-31.232-0.128-17.216-13.984-31.232-31.232-31.232zM136.192 797.984c-17.216 0-31.232 13.984-31.232 31.232s13.984 31.232 31.232 31.232c17.216 0 31.232-13.984 31.232-31.232-0.128-17.216-13.984-31.232-31.232-31.232zM290.208 32.416c-17.216 0-31.232 13.984-31.232 31.232s13.984 31.232 31.232 31.232c17.216 0 31.232-13.984 31.232-31.232 0-17.344-13.984-31.232-31.232-31.232zM290.208 185.536c-17.216 0-31.232 13.984-31.232 31.232s13.984 31.232 31.232 31.232c17.216 0 31.232-13.984 31.232-31.232 0-17.344-13.984-31.232-31.232-31.232zM290.208 338.656c-17.216 0-31.232 13.984-31.232 31.232s13.984 31.232 31.232 31.232c17.216 0 31.232-14.016 31.232-31.232s-13.984-31.232-31.232-31.232zM290.208 491.744c-17.216 0-31.232 13.984-31.232 31.232s13.984 31.232 31.232 31.232c17.216 0 31.232-13.984 31.232-31.232s-13.984-31.232-31.232-31.232zM290.208 644.864c-17.216 0-31.232 13.984-31.232 31.232s13.984 31.232 31.232 31.232c17.216 0 31.232-13.984 31.232-31.232s-13.984-31.232-31.232-31.232zM290.208 797.984c-17.216 0-31.232 13.984-31.232 31.232s13.984 31.232 31.232 31.232c17.216 0 31.232-13.984 31.232-31.232s-13.984-31.232-31.232-31.232zM442.144 32.416c-17.216 0-31.232 13.984-31.232 31.232s13.984 31.232 31.232 31.232 31.232-13.984 31.232-31.232c-0.128-17.344-13.984-31.232-31.232-31.232zM442.144 185.536c-17.216 0-31.232 13.984-31.232 31.232s13.984 31.232 31.232 31.232c17.216 0 31.232-13.984 31.232-31.232-0.128-17.344-13.984-31.232-31.232-31.232zM595.904 32.416c-17.216 0-31.232 13.984-31.232 31.232s13.984 31.232 31.232 31.232 31.232-13.984 31.232-31.232c0-17.344-13.984-31.232-31.232-31.232zM595.904 185.536c-17.216 0-31.232 13.984-31.232 31.232s13.984 31.232 31.232 31.232c17.216 0 31.232-13.984 31.232-31.232 0-17.344-13.984-31.232-31.232-31.232zM595.904 644.864c-17.216 0-31.232 13.984-31.232 31.232s13.984 31.232 31.232 31.232c17.216 0 31.232-13.984 31.232-31.232s-13.984-31.232-31.232-31.232zM747.872 32.416c-17.216 0-31.104 13.984-31.104 31.232s13.984 31.232 31.104 31.232c17.216 0 31.232-13.984 31.232-31.232 0-17.344-13.984-31.232-31.232-31.232zM747.872 185.536c-17.216 0-31.104 13.984-31.104 31.232s13.984 31.232 31.104 31.232c17.216 0 31.232-13.984 31.232-31.232 0-17.344-13.984-31.232-31.232-31.232zM747.872 338.656c-17.216 0-31.104 13.984-31.104 31.232s13.984 31.232 31.104 31.232c17.216 0 31.232-14.016 31.232-31.232s-13.984-31.232-31.232-31.232zM747.872 491.744c-17.216 0-31.104 13.984-31.104 31.232s13.888 31.232 31.104 31.232 31.232-13.984 31.232-31.232-13.984-31.232-31.232-31.232zM899.84 32.416c-17.216 0-31.232 13.984-31.232 31.232s13.984 31.232 31.232 31.232 31.232-13.984 31.232-31.232c0-17.344-13.984-31.232-31.232-31.232zM899.84 185.536c-17.216 0-31.232 13.984-31.232 31.232s13.984 31.232 31.232 31.232c17.216 0 31.232-13.984 31.232-31.232 0-17.344-13.984-31.232-31.232-31.232zM899.84 338.656c-17.216 0-31.232 13.984-31.232 31.232s13.984 31.232 31.232 31.232 31.232-14.016 31.232-31.232c0-17.216-13.984-31.232-31.232-31.232z" />
<glyph unicode="&#xe613;" glyph-name="large-clock" d="M512.032 928.512c-264.992 0-480.544-215.552-480.544-480.544s215.552-480.544 480.544-480.544c264.992 0 480.544 215.552 480.544 480.544s-215.552 480.544-480.544 480.544zM512.032 29.952c-230.4 0-418.016 187.456-418.016 418.016s187.584 418.016 418.016 418.016c230.528 0 418.016-187.488 418.016-418.016s-187.456-418.016-418.016-418.016zM512.032 820.864c-205.664 0-372.896-167.232-372.896-372.896s167.232-372.896 372.896-372.896 372.896 167.232 372.896 372.896c0 205.664-167.232 372.896-372.896 372.896zM694.752 385.44h-207.712c-12.416 0-22.56 10.112-22.56 22.56v245.12c0 12.416 10.112 22.56 22.56 22.56s22.56-10.112 22.56-22.56v-222.72h185.152c12.416 0 22.56-10.112 22.56-22.56s-10.112-22.432-22.56-22.432z" />
<glyph unicode="&#xe614;" glyph-name="large-cloud" d="M991.616 343.84c0 78.656-48.8 145.792-117.824 173.056-2.88 121.632-102.304 219.264-224.736 219.264-115.2 0-210.144-86.624-223.2-198.272-19.552 12.288-42.688 19.36-67.424 19.36-70.208 0-127.104-56.896-127.104-127.104 0-5.28 0.384-10.464 0.96-15.648-18.88 10.016-40.48 15.648-63.424 15.648-75.392 0-136.48-61.088-136.48-136.48 0-68.672 50.752-125.568 116.832-135.072 5.184-0.928 10.464-1.44 15.904-1.44h644.288c7.136 0 17.888 0.192 24.448 1.76 91.136 11.936 157.696 90.56 157.696 184.896h0.064z" />
<glyph unicode="&#xe615;" glyph-name="large-color" d="M644.768 483.744c-18.208 16.288-38.88 34.752-60.672 57.728-47.072 47.584-18.464 108.544 27.2 189.216 30.016 53.088 58.368 103.264 39.136 144.704-11.68 25.152-38.208 41.44-82.24 49.888-84.928 12.32-175.232-27.072-275.808-120.32-113.632-101.984-276.704-331.232-259.648-542.88 3.712-203.968 197.92-295.68 334.816-295.68 17.568 0 34.656 1.408 51.072 4.224 143.552 26.944 333.664 161.504 318.656 344.416 2.816 83.36-39.232 121.088-92.48 168.672zM211.552 537.504c10.272 30.272 43.104 46.432 73.376 36.192s46.432-43.104 36.192-73.376c-10.272-30.272-43.104-46.432-73.376-36.192-30.144 10.272-46.432 43.104-36.192 73.376zM174.88 270.432c-30.272 10.272-46.432 43.104-36.192 73.376s43.104 46.432 73.376 36.192c30.272-10.272 46.432-43.104 36.192-73.376-10.4-30.272-43.232-46.432-73.376-36.192zM357.92 129.312c-10.272-30.272-43.104-46.432-73.376-36.192-0.128 0-0.256 0.128-0.384 0.128-3.2 0.64-6.528 1.28-9.632 2.432-9.888 3.328-26.56 21.408-28.096 42.208-1.664 9.248-1.28 19.104 1.92 28.608 10.272 30.272 43.104 46.432 73.376 36.192s46.432-43.104 36.192-73.376zM455.040 663.328c-10.272-30.272-43.104-46.432-73.376-36.192s-46.432 43.104-36.192 73.376c10.272 30.272 43.104 46.432 73.376 36.192s46.432-43.104 36.192-73.376zM647.584 240.544c-21.408-61.824-70.048-101.088-108.64-87.616-38.624 13.344-52.576 74.272-31.168 136.096s70.048 101.088 108.64 87.616c38.496-13.344 52.48-74.272 31.168-136.096zM869.376 926.080c-1.536 1.536-3.712 2.432-5.92 2.432-5.504 0-9.888-1.664-12.832-4.992-5.12-5.76-4.224-13.728-3.328-22.048 0.384-3.456 0.896-7.328 0.896-11.424 0-12.448-12.704-63.488-52.096-78.368-35.168-20.8-57.088-52.992-61.824-90.688-4.48-35.168 7.040-70.304 30.656-93.888 15.392-15.392 31.552-27.968 53.216-41.312v-569.312c0-1.664 0.384-3.328 0.512-4.992v-4.992c0-7.040 3.456-16.544 12.32-21.408 8.224-8.448 19.616-13.856 32.448-13.856 19.36 0 35.904 12.32 42.208 29.504l0.256 0.256c1.28 1.536 1.92 4.608 1.92 6.528v1.28c0.384 2.432 0.768 4.992 0.768 7.584v569.824c56.32 40.032 84.8 84.544 84.8 132.384 0 63.36-96.608 180.096-124.032 207.552z" />
<glyph unicode="&#xe616;" glyph-name="large-computergeneric" d="M992.288 199.552c-3.904 7.488-11.648 12.128-20.128 12.128h-322.752c-5.696 0-11.168-2.112-15.328-6.016l-24.8-22.816h-212.48l-22.432 22.304c-4.256 4.192-10.016 6.496-16 6.496h-304.128c-8.192 0-15.712-4.384-19.744-11.424-4.032-7.136-3.936-15.808 0.192-22.816l25.632-43.36c4.128-6.944 11.456-11.2 19.552-11.2v0l862.912 0.64c7.392 0 14.432 3.616 18.688 9.824l29.472 42.752c4.672 7.072 5.312 16.128 1.344 23.552v-0.064zM195.264 678.816h617.92v-331.712h-617.92v331.712zM128.32 250.496h753.92c12.544 0 22.784 10.112 22.784 22.752v477.088c0 12.512-10.208 22.752-22.784 22.752h-753.92c-12.512 0-22.752-10.112-22.752-22.752v-477.088c0-12.512 10.208-22.752 22.752-22.752zM149.888 701.472c0 12.512 10.208 22.752 22.752 22.752h663.296c12.512 0 22.752-10.112 22.752-22.752v-377.056c0-12.512-10.176-22.752-22.752-22.752h-663.392c-12.512 0-22.752 10.176-22.752 22.752v377.056h0.096z" />
<glyph unicode="&#xe617;" glyph-name="large-contact" d="M348.16 638.272h-180.192c-8.256 0-14.976-6.72-14.976-14.976v-180.192c0-8.256 6.72-14.976 14.976-14.976h180.192c8.256 0 14.976 6.72 14.976 14.976v180.192c0 8.256-6.72 14.976-14.976 14.976zM962.528 757.984h-900.96c-16.64 0-30.080-13.44-30.080-29.984v-570.656c0-16.672 13.44-30.080 30.080-30.080h243.136c2.784 0 4.992 2.208 4.992 4.992v23.264c0 2.816-2.208 4.992-4.992 4.992h-28.928c-6.336 0-11.52 6.752-11.52 15.008v60.064c0 8.256 5.184 14.976 11.52 14.976h127.040c6.336 0 11.52-6.72 11.52-14.976v-60.064c0-8.256-5.184-15.008-11.52-15.008h-28.256c-2.784 0-4.992-2.176-4.992-4.992v-23.264c0-2.688 2.208-4.992 4.992-4.992h275.488c2.816 0 4.992 2.208 4.992 4.992v23.264c0 2.816-2.176 4.992-4.992 4.992h-28.896c-6.336 0-11.52 6.752-11.52 15.008v60.064c0 8.256 5.184 14.976 11.52 14.976h127.040c6.336 0 11.52-6.72 11.52-14.976v-60.064c0-8.256-5.184-15.008-11.52-15.008h-28.256c-2.784 0-4.992-2.176-4.992-4.992v-23.264c0-2.688 2.208-4.992 4.992-4.992h242.56c16.64 0 30.016 13.44 30.016 30.080v570.656c0 16.512-13.44 29.984-29.984 29.984v0zM392.864 412.8c0-3.552-1.44-6.752-3.552-9.248-0.288-0.384-0.48-0.832-0.864-1.216-0.288-0.288-0.672-0.416-0.96-0.672-2.592-2.208-5.856-3.712-9.504-3.712h-240.64c-3.648 0-6.944 1.504-9.504 3.712-0.288 0.288-0.672 0.416-0.96 0.672-0.384 0.384-0.48 0.864-0.864 1.152-2.112 2.56-3.552 5.664-3.552 9.184v240.768c0 3.552 1.44 6.72 3.552 9.216 0.288 0.384 0.48 0.864 0.768 1.152s0.672 0.384 0.96 0.672c2.592 2.208 5.76 3.744 9.44 3.744h240.64c3.648 0 6.912-1.536 9.504-3.744 0.288-0.288 0.672-0.384 0.96-0.672 0.384-0.384 0.48-0.864 0.864-1.152 2.112-2.592 3.552-5.664 3.552-9.216l0.16-240.64zM498.848 638.272h343.456c8.256 0 14.976-6.72 14.976-14.976s-6.72-14.976-14.976-14.976h-343.456c-8.256 0-14.976 6.72-14.976 14.976s6.72 14.976 14.976 14.976zM796.384 428.64h-297.536c-8.256 0-14.976 6.72-14.976 14.976s6.72 14.976 14.976 14.976h297.536c8.256 0 15.008-6.72 15.008-14.976-0.032-8.256-6.752-14.976-15.008-14.976zM886.432 518.112h-387.584c-8.256 0-14.976 6.72-14.976 14.976s6.72 14.976 14.976 14.976h387.584c8.256 0 14.976-6.72 14.976-14.976 0.096-8.256-6.624-14.976-14.976-14.976z" />
<glyph unicode="&#xe618;" glyph-name="large-copy" d="M551.2 532.768l-0.192-1.632-0.256 0.192v-19.68h21.312l-20.864 21.12zM550.88 401.632v-21.312c1.632 2.432 3.552 4.64 5.696 6.752l15.616 14.56h-21.312zM994.016 671.584v-487.712c0-12.64-10.24-22.944-22.496-22.944h-393.76c-12.384 0-22.368 10.368-22.368 22.944v132.384c1.632-2.368 3.552-4.64 5.696-6.752 18.432-18.304 45.696-21.312 66.624-8.928 1.952-0.864 4.128-1.376 6.432-1.376h281.12c10.24 0 18.88 9.056 18.88 20 0 11.264-8.64 20.256-18.88 20.256h-245.824l66.016 64.736h179.808c10.24 0 18.88 8.928 18.88 19.936 0 11.264-8.64 20.256-18.88 20.256h-151.552c0.864 2.944 1.376 6.016 1.376 8.896 0.256 1.632 0.256 3.552 0.256 5.888-0.256 5.408-1.44 11.872-3.424 16.96 0 0.768 0 1.248-0.256 1.44v0.768c-2.688 5.888-6.88 11.072-10.88 16.192-0.448 0.288-1.12 0.768-1.504 1.248l-13.312 13.312h179.328c10.24 0 18.88 8.96 18.88 19.936 0 11.296-8.64 20.256-18.88 20.256h-219.68l-2.688 2.688-41.952 42.4-16.864 15.136c-11.072 10.816-25.312 16.192-39.616 16.192-14.24 0-28.512-5.408-38.816-16.192l-0.192-0.192v100.16c0 12.64 10.016 22.944 22.368 22.944h348.192v-42.624c0-10.016 8.192-18.336 18.304-18.336l49.664 0.128zM726.688 465.76c0 0.288 0 0.48-0.192 0.576v0.288c-1.248 2.592-3.008 4.832-4.64 7.040-0.192 0.192-0.64 0.288-0.8 0.48l-24.384 24.576-10.368 10.304-77.056 77.312c-3.488 3.456-8.064 5.696-12.64 6.56-1.12 0.288-2.56 0.48-3.872 0.48-1.504 0-2.944-0.192-4.64-0.48-1.568-0.288-3.008-0.768-4.384-1.152-2.944-1.152-5.696-2.912-7.872-5.312-9.376-9.44-9.376-24.672 0-34.016l71.328-71.328h-173.024c-1.92 0-3.744-0.288-5.6-0.768v191.232h-53.696c-10.016 0-18.336 8.192-18.336 18.336v42.528h-344.096c-12.256 0-22.464-10.304-22.464-22.944v-525.6c0-12.64 10.208-22.944 22.464-22.944h393.76c12.416 0 22.368 10.368 22.368 22.944v250.208c1.824-0.32 3.552-0.576 5.6-0.576h173.056l-26.752-26.88-43.488-43.488c-9.44-9.248-9.44-24.384 0-33.824 2.24-2.432 4.928-4.064 7.936-5.248 1.312-0.512 2.88-0.864 4.32-1.248 2.688-0.576 5.504-0.576 8.448 0 4.512 0.864 8.8 3.2 12.256 6.56l111.008 111.168c1.248 1.056 2.24 2.432 3.008 3.744 0.736 1.056 1.312 2.112 1.952 3.328 0.192 0.576 0.64 1.44 0.64 2.4 0.864 1.632 1.376 3.872 1.376 5.888 0.192 0.768 0.192 1.44 0.192 2.496-0.128 2.304-0.576 5.12-1.44 7.424l0.032-0.064zM389.984 299.2h-281.088c-10.304 0-18.88 9.056-18.88 19.936 0 11.072 8.576 20.064 18.88 20.064h281.088c10.304 0 18.88-8.992 18.88-20.064-0.032-11.008-8.576-19.936-18.88-19.936zM389.984 404.064h-281.088c-10.304 0-18.88 8.928-18.88 19.936 0 11.072 8.576 20.064 18.88 20.064h281.088c10.304 0 18.88-8.992 18.88-20.064-0.032-10.944-8.576-19.936-18.88-19.936zM389.984 509.056h-281.088c-10.304 0-18.88 8.96-18.88 19.936 0 11.072 8.576 20.064 18.88 20.064h281.088c10.304 0 18.88-8.96 18.88-20.064-0.032-10.976-8.576-19.936-18.88-19.936z" />
<glyph unicode="&#xe619;" glyph-name="large-data" d="M58.528 721.024h153.696c14.848 0 27.008 12.032 27.008 26.88v153.696c0 14.88-12.032 26.88-27.008 26.88h-153.696c-14.848 0-27.008-12.032-27.008-26.88v-153.696c0.128-14.88 12.16-26.88 27.008-26.88zM310.848 721.024h153.696c14.88 0 26.88 12.032 26.88 26.88v153.696c0 14.88-12.032 26.88-26.88 26.88h-153.696c-14.88 0-27.040-12.032-27.040-26.88v-153.696c0-14.88 12.032-26.88 27.040-26.88zM212.224 175.52h-153.696c-14.848 0-27.008-12.032-27.008-27.040v-153.696c0-14.88 12.032-27.008 27.008-27.008h153.696c14.848 0 27.008 12.032 27.008 27.008v153.696c-0.128 14.88-12.16 27.040-27.008 27.040zM310.72 216.512h153.696c14.848 0 26.88 12.032 26.88 27.008v153.568c0 14.848-12.032 27.008-26.88 27.008h-153.696c-14.88 0-26.88-12.032-26.88-27.008v-153.568c0-14.976 12.032-27.008 26.88-27.008zM716.576 424h-153.696c-14.88 0-26.88-12.032-26.88-27.008v-153.568c0-14.848 12.032-27.008 26.88-27.008h54.304v-122.304h-125.92v54.432c0 14.88-12.032 27.008-26.88 27.008h-153.696c-14.848 0-26.88-12.032-26.88-27.008v-153.696c0-14.848 12.032-27.008 26.88-27.008h153.696c14.848 0 26.88 12.032 26.88 27.008v54.304h148.448c12.416 0 22.528 10.112 22.528 22.528v144.832h54.304c14.848 0 26.88 12.032 26.88 27.040v153.568c0.128 14.848-11.904 26.88-26.912 26.88zM446.336 12.992h-117.44v117.568h117.44v-117.568zM716.576 676.32h-153.696c-14.88 0-26.88-12.032-26.88-26.88v-54.304h-296.896v54.176c0 14.88-12.032 26.88-27.040 26.88h-153.696c-14.848 0-26.88-12.032-26.88-26.88v-153.696c0-14.848 12.032-26.88 26.88-26.88h153.696c14.88 0 27.040 12.032 27.040 26.88v54.304h296.896v-54.304c0-14.848 12.032-26.88 26.88-26.88h153.696c14.848 0 26.88 12.032 26.88 26.88v153.696c0.128 14.976-11.904 27.040-26.88 27.040zM698.528 513.792h-117.44v117.44h117.44v-117.44zM964.832 175.52h-153.696c-14.848 0-26.88-12.032-26.88-27.040v-153.696c0-14.848 12.032-27.008 26.88-27.008h153.696c14.88 0 26.88 12.032 26.88 27.008v153.696c0 14.848-12.032 27.040-26.88 27.040zM964.832 676.32h-54.304v148.448c0 12.416-10.112 22.528-22.56 22.528h-144.352v54.304c0 14.848-12.032 26.88-27.008 26.88h-153.568c-14.848 0-27.008-12.032-27.008-26.88v-153.696c0-14.88 12.032-26.88 27.008-26.88h153.568c14.848 0 27.008 12.032 27.008 26.88v54.304h121.792v-125.92h-54.304c-14.848 0-26.88-12.032-26.88-26.88v-153.696c0-14.88 12.032-26.88 26.88-26.88h153.696c14.848 0 26.88 12.032 26.88 26.88v153.568c0 14.976-12.032 27.008-26.88 27.008zM946.752 513.792h-117.44v117.44h117.44v-117.44z" />
<glyph unicode="&#xe61a;" glyph-name="large-deals" d="M962.112 785.056h-668.256c-7.968 0-15.584-3.168-21.248-8.864l-233.184-233.28c-5.664-5.568-8.864-13.28-8.864-21.248v-147.36c0-8 3.168-15.616 8.864-21.248l233.28-233.312c5.664-5.696 13.28-8.864 21.248-8.864h668.16c16.672 0 30.112 13.504 30.112 30.112v613.984c-0.064 16.64-13.568 30.112-30.048 30.112l-0.064-0.032zM165.76 391.68c-31.072 0-56.352 25.184-56.352 56.352s25.184 56.352 56.352 56.352 56.352-25.184 56.352-56.352c0-31.040-25.184-56.352-56.352-56.352zM319.328 506.976c0 12.384 10.080 22.496 22.496 22.496s22.496-10.080 22.496-22.496v-117.984c0-12.384-10.080-22.496-22.496-22.496s-22.496 10.048-22.496 22.496v117.984zM459.84 194.176h-117.984c-12.384 0-22.496 10.048-22.496 22.496v69.248c0 12.384 10.080 22.496 22.496 22.496s22.496-10.112 22.496-22.496v-46.624h95.392c12.384 0 22.496-10.048 22.496-22.496s-9.984-22.56-22.4-22.56v-0.064zM459.84 658.048h-95.392v-47.904c0-12.48-10.080-22.496-22.496-22.496s-22.496 10.080-22.496 22.496v70.4c0 12.384 10.080 22.496 22.496 22.496h117.984c12.384 0 22.496-10.080 22.496-22.496s-10.208-22.496-22.592-22.496zM680.864 194.176h-117.888c-12.512 0-22.56 10.048-22.56 22.496s10.048 22.496 22.56 22.496h118.016c12.512 0 22.496-10.048 22.496-22.496s-10.048-22.496-22.624-22.496zM680.864 658.048h-117.888c-12.512 0-22.56 10.080-22.56 22.496s10.048 22.496 22.56 22.496h118.016c12.512 0 22.496-10.080 22.496-22.496s-10.048-22.496-22.624-22.496zM924.576 216.672c0-1.568-0.192-3.072-0.512-4.512-2.112-10.304-11.2-18.016-22.112-18.016h-117.888c-12.512 0-22.56 10.048-22.56 22.496s10.048 22.496 22.56 22.496h95.36v46.624c0 12.384 10.112 22.496 22.496 22.496 12.448 0 22.496-10.048 22.496-22.496l0.128-69.184v0.096zM924.576 389.12c0-12.448-10.112-22.496-22.496-22.496-12.448 0-22.496 10.048-22.496 22.496v117.856c0 12.384 10.048 22.496 22.496 22.496 12.384 0 22.496-10.080 22.496-22.496v-117.856zM924.576 680.544v-70.4c0-12.48-10.112-22.496-22.496-22.496-12.448 0-22.496 10.080-22.496 22.496v47.904h-95.36c-12.512 0-22.624 10.080-22.624 22.496s10.048 22.496 22.624 22.496h117.952c12.256 0.096 22.4-9.984 22.4-22.496v0 0z" />
<glyph unicode="&#xe61b;" glyph-name="large-detachable" d="M514.24 111.936c12.096 0 22.688 10.592 22.688 22.688v131.552l34.784-34.784c9.056-9.088 22.688-9.088 31.744 0s9.088 22.688 0 31.744l-74.080 74.112c-1.504 1.504-4.512 3.008-6.048 4.512 0 0-1.504 0-1.504 1.504-1.504 0-3.008 1.504-6.048 1.504-1.504 0-1.504 0-3.008 0-3.008 0-4.512 0-7.552-1.504v0 0c-3.008-1.504-4.544-3.008-6.048-4.512v0l-75.616-75.616c-4.544-4.512-6.048-10.592-6.048-16.64s1.504-12.096 6.048-16.64c9.056-9.056 22.688-9.056 31.744 0l36.288 36.288v-131.552c0-13.6 9.056-22.688 22.688-22.688zM992.096 43.904c-4.544 7.552-12.096 12.096-19.68 12.096h-323.616c-6.016 0-10.56-1.504-15.136-6.016l-24.192-22.688h-211.68l-22.688 22.688c-4.544 4.512-10.592 6.016-16.64 6.016h-303.936c-7.552 0-15.136-4.512-19.648-12.096s-4.544-15.136 0-22.688l25.696-43.84c4.544-7.552 12.096-10.592 19.648-10.592v0h861.92c7.552 0 15.136 3.008 18.144 9.056l28.736 42.336c6.048 9.088 6.048 18.144 3.040 25.728zM195.168 834.752h616.96v-331.168h-616.96v331.168zM128.64 406.816h753.056c12.096 0 22.688 10.592 22.688 22.688v476.32c0 12.096-10.56 22.688-22.688 22.688h-753.056c-12.096 0-22.688-10.592-22.688-22.688v-476.32c0-13.6 10.592-22.688 22.688-22.688zM149.824 857.44c0 12.096 10.592 22.688 22.688 22.688h662.336c12.096 0 22.688-10.56 22.688-22.688v-376.512c0-12.096-10.592-22.688-22.688-22.688h-662.336c-12.096 0-22.688 10.592-22.688 22.688v376.512z" />
<glyph unicode="&#xe61c;" glyph-name="large-diagnostic" d="M791.936 341.344c-17.024 0-32.672 9.6-40.224 24.832l-41.76 83.52-97.6-303.808c-6.016-18.688-23.424-31.264-42.912-31.264-0.64 0-1.408 0-2.048 0-20.352 0.896-37.536 15.36-41.888 35.232l-94.912 425.248-53.024-200.192c-5.248-19.744-23.040-33.44-43.552-33.44h-302.528v-298.592c0-41.376 33.568-74.912 75.072-74.912h810.656c41.376 0 74.912 33.568 74.912 74.912v298.464h-200.192zM390.912 776.576c5.376 20.096 23.328 34.336 44.448 33.44 20.768-0.384 38.56-14.976 43.040-35.232l99.008-443.424 80.448 250.944c5.632 17.408 21.152 29.728 39.456 31.136 18.048 1.408 35.488-8.32 43.68-24.736l78.784-157.28h172.416v422.176c0 41.376-33.568 74.912-74.912 74.912h-810.656c-41.504 0-75.072-33.568-75.072-74.912v-422.048h267.968l91.456 345.056z" />
<glyph unicode="&#xe61d;" glyph-name="large-dimensionsweight" d="M577.376 591.776c-5.696 10.112-15.072 16.864-26.016 19.648v32.16c0 107.744-79.008 119.296-112.992 119.296s-113.056-11.648-113.056-119.296v-32.544c-10.208-2.784-19.36-8.864-24.928-18.208l-263.808-440.864c-7.808-12.992-7.904-29.312-0.48-42.368 7.424-13.184 21.472-21.376 36.672-21.376h715.936c15.072 0 28.8 7.872 36.448 20.864 7.424 12.896 7.68 28.864 0.256 42.016l-248.032 440.672zM503.424 612.992h-130.752v37.248c0-0.096 0-0.192 0-0.384 0.288 35.744 29.568 64.8 65.28 64.8s64.992-29.088 65.28-64.8c0 0.096 0 0.192 0 0.384v-37.248h0.192zM932.864 810.368c-169.632 0-169.632 0-169.632 0-28.736 0-60.384-28.896-60.384-60.64 0-231.072 0-280.96 0-280.96 6.752-15.008 14.24-30.72 21.76-46.272l24.32-43.264c0 301.728-0.128 370.496-0.128 370.496l14.432 14.432c169.568 0 169.568 0 169.568 0 14.304 0 14.304-14.432 14.304-14.432 0-24.544 0-41.408 0-52.864 0-3.936 0-7.232 0-10.016h-116.32c-12.512 0-22.624-10.112-22.624-22.624s10.112-22.624 22.624-22.624h116.32v-16.064c0-32.736 0-53.728 0-67.392h-116.32c-12.512 0-22.624-10.112-22.624-22.624s10.112-22.624 22.624-22.624h116.32v-25.984c0-25.728 0-44 0-57.376h-116.32c-12.512 0-22.624-10.112-22.624-22.624s10.112-22.624 22.624-22.624h116.32v-18.688c0-28.32 0-49.184 0-64.704h-116.32c-12.512 0-22.624-10.080-22.624-22.592 0-1.952 0.32-3.68 0.8-5.504l5.952-10.688c4.128-4.032 9.696-6.496 15.936-6.496h116.352v-28.64c0-12.8 0-23.36 0-32.384 0-45.504 0-45.728 0-45.728 0-14.4 0-14.4-14.304-14.4-27.808 0-45.568 0-56.992 0 0.736-15.936-2.752-31.872-10.56-46.208 67.424 0 67.68 0 67.68 0 31.552 0 60.384 28.896 60.384 60.544 0 600.896 0 600.896 0 600.896-0.192 31.872-28.992 60.768-60.576 60.768l0.032-0.096z" />
<glyph unicode="&#xe61e;" glyph-name="large-display" d="M120 685.248h783.136v-321.632h-783.136v321.632zM971.424 776.224h-917.12c-12.608 0-22.816-10.208-22.816-22.816v-457.856c0-12.64 10.208-22.88 22.816-22.88h359.392v-107.328h-129.696c-12.608 0-22.816-10.24-22.816-22.816 0-12.64 10.208-22.816 22.816-22.816h458.56c12.64 0 22.816 10.176 22.816 22.816 0 12.576-10.176 22.816-22.816 22.816h-130.432v107.328h359.36c12.64 0 22.816 10.24 22.816 22.88v457.856c-0.128 12.608-10.304 22.816-22.944 22.816h0.064zM948.736 340.864c0-12.64-10.176-22.816-22.816-22.816h-828.64c-12.608 0-22.816 10.176-22.816 22.816v367.2c0 12.608 10.208 22.816 22.816 22.816h828.672c12.64 0 22.816-10.208 22.816-22.816v-367.2z" />
<glyph unicode="&#xe61f;" glyph-name="large-download" d="M480.512 246.944c0.512-0.512 1.152-0.768 1.664-1.28 0.896-0.768 1.92-1.408 2.816-2.048 1.536-1.024 3.2-2.048 4.864-2.816 1.024-0.512 2.048-1.024 3.072-1.408 1.92-0.768 3.712-1.408 5.632-1.92 0.896-0.256 1.792-0.512 2.816-0.768 2.816-0.64 5.76-0.896 8.704-0.896v0 0c2.944 0 5.76 0.384 8.704 0.896 0.896 0.128 1.664 0.384 2.432 0.64 2.048 0.512 4.096 1.152 6.144 2.048 0.384 0.128 0.896 0.256 1.28 0.384 0.768 0.384 1.536 0.896 2.432 1.28 0.768 0.384 1.664 0.896 2.432 1.28 1.92 1.152 3.712 2.432 5.504 3.84 0.128 0.128 0.384 0.256 0.512 0.384l191.168 164.704c18.784 16.224 20.96 44.608 4.736 63.392s-44.608 20.96-63.392 4.736l-117.056-100.704v504.864c0 24.928-20.064 44.992-44.864 44.992s-44.992-20.064-44.992-44.992v-503.84l-113.856 99.552c-18.656 16.352-47.040 14.432-63.392-4.224s-14.432-47.040 4.224-63.392l188.48-164.704zM946.272 272.096c-24.768 0-44.992-20.064-44.992-44.992v-167.264h-779.84v167.392c0 24.768-20.064 44.992-44.992 44.992s-44.992-20.064-44.992-44.992v-212.128c0-24.768 20.064-44.992 44.992-44.992h869.792c24.768 0 44.992 20.064 44.992 44.992v212.128c0 24.768-20.064 44.864-44.992 44.864z" />
<glyph unicode="&#xe620;" glyph-name="large-drivers" d="M510.112 641.664c-105.632 0-191.648-85.984-191.648-191.648s85.984-191.648 191.648-191.648c105.632 0 191.648 85.984 191.648 191.648s-85.984 191.648-191.648 191.648zM510.24 323.456c-69.792 0-126.56 56.768-126.56 126.56s56.768 126.464 126.56 126.464c69.664 0 126.464-56.768 126.464-126.464-0.128-69.792-56.768-126.56-126.464-126.56zM945.056 538.688h-38.528c-1.664 0-4.704 2.304-5.216 3.712l-53.344 124.8-1.024 2.048c-0.768 1.408-0.384 4.96 0.64 6.112l26.016 26.016c8.288 8.288 12.768 19.264 12.768 31.008 0 11.616-4.608 22.592-12.768 30.624l-62.528 62.528c-16.352 16.576-44.928 16.864-62.016 0l-28.064-28.192c-0.512-0.512-2.432-1.408-4.864-1.408-1.28 0-2.048 0.256-2.176 0.384l-110.624 44.16c-1.408 0.512-3.712 3.456-3.84 4.96v39.552c0 24-19.52 43.52-43.52 43.52h-88.672c-24 0-43.52-19.52-43.52-43.52v-39.424c-0.128-1.664-2.688-4.96-4.192-5.472l-125.44-53.6-2.688-1.408c-0.384-0.256-4.96 0.512-5.216 0.768l-27.808 27.808c-16.352 16.352-44.768 16.448-61.632 0l-62.656-62.784c-8.288-8.16-12.768-19.136-12.768-30.88 0-11.616 4.576-22.592 12.64-30.624l30.112-30.368c1.28-1.28 1.92-5.472 1.152-7.008l-42.88-107.424-0.768-2.432c-0.512-1.408-3.456-3.552-4.96-3.552h-41.856c-23.968 0-43.392-19.52-43.392-43.648v-88.672c0-24.128 19.52-43.616 43.392-43.616h41.856c1.664 0 4.96-2.304 5.472-3.968l52.192-123.52 1.408-2.688c0.64-1.152 0.256-4.576-0.512-5.472l-28.832-28.576c-16.96-16.864-16.96-44.544 0-61.632l62.784-62.656c16.448-16.448 45.44-16.352 61.504 0l30.88 30.624c0.64 0.64 5.888 1.28 6.752 0.896l111.904-44.768c1.536-0.512 3.712-3.456 3.84-4.96v-41.088c0-24 19.52-43.52 43.52-43.52h88.416c24 0 43.52 19.52 43.52 43.52v41.088c0.128 1.664 2.528 4.736 4.064 5.248l124.8 52.96c0.512 0.256 5.6-0.384 5.984-0.64l27.296-27.424c16.448-16.192 45.056-16.192 61.504 0.128l62.656 62.656c8.288 8.16 12.768 19.136 12.768 30.88s-4.608 22.592-12.768 30.752l-28.704 28.96c-1.152 1.28-1.792 5.216-1.024 6.752l44.64 110.752 0.768 2.432c0.512 1.408 3.552 3.584 4.96 3.584h38.528c24 0 43.52 19.52 43.52 43.616v88.672c0 23.968-19.52 43.52-43.52 43.52zM510.112 213.056c-130.656 0-236.96 106.272-236.96 236.96s106.272 236.96 236.96 236.96c130.656 0 236.96-106.272 236.96-236.96s-106.272-236.96-236.96-236.96z" />
<glyph unicode="&#xe621;" glyph-name="large-edit" d="M642.24 745.28l-48.512 48.64c-2.432 2.4-6.304 2.4-8.672 0l-469.376-469.248c-0.832-0.832-0.832-2.176 0-3.040 0.736-0.704 3.136-0.48 3.616-0.352 13.952 1.44 27.808-2.528 37.696-12.512 9.984-9.92 13.952-23.744 12.512-37.856 0-0.352-0.352-2.912 0.352-3.584 0.832-0.832 2.176-0.832 3.008 0v0.128l469.152 469.28c2.72 2.304 2.72 6.144 0.224 8.544v0zM729.824 657.824l-48.672 48.64c-2.4 2.4-6.272 2.4-8.672 0l-469.248-469.248c-0.832-0.832-0.832-2.176 0-3.040 0.736-0.704 3.136-0.448 3.616-0.32 13.952 1.44 27.808-2.56 37.824-12.544s13.952-23.744 12.512-37.856c0-0.32-0.352-2.88 0.352-3.584 0.832-0.832 2.176-0.832 3.008 0v0.128l469.12 469.28c2.528 2.304 2.528 6.144 0.16 8.544v0zM156.16 127.744c0.224 1.472-0.256 2.912-1.216 3.872 0 0-90.336 90.304-90.336 90.432-0.96 0.96-2.4 1.44-3.968 1.248-1.44-0.288-2.528-1.248-3.136-2.56 0 0-22.304-113.568-22.304-113.696-0.128-1.312 0.256-2.784 1.216-3.872 1.088-1.056 2.528-1.44 3.872-1.184 0 0 112.992 22.368 113.088 22.368s0.128 0.128 0.128 0.128c1.472 0.736 2.432 1.824 2.656 3.264zM853.888 821.504l-96.48 96.48c-13.376 13.376-34.208 14.080-46.72 1.568l-86.848-86.72c-2.432-2.4-2.432-6.272 0-8.672l136.096-136.096c2.4-2.4 6.24-2.4 8.672 0l86.688 86.72c12.672 12.416 11.968 33.344-1.408 46.72zM970.112 25.152h-921.632c-9.408 0-16.992 7.584-16.992 17.088 0 9.408 7.584 17.056 16.992 17.056h921.632c9.376 0 16.992-7.552 16.992-17.056 0.096-9.504-7.616-17.088-16.992-17.088z" />
<glyph unicode="&#xe622;" glyph-name="large-employee" d="M131.424 575.104v-432.768h760.96v432.768h-760.96zM684.128 523.52c40.8 0 73.888-33.152 73.888-73.856 0-40.768-33.184-73.984-73.888-73.984s-73.888 33.184-73.888 73.984c-0.064 40.8 33.088 73.856 73.888 73.856zM441.44 275.744h-218.592c-12.512 0-22.592 10.048-22.592 22.56 0 12.576 10.080 22.624 22.592 22.624h218.592c12.512 0 22.592-10.048 22.592-22.624 0-12.48-10.080-22.56-22.592-22.56zM441.44 396.384h-218.592c-12.512 0-22.592 10.048-22.592 22.56s10.080 22.592 22.592 22.592h218.592c12.512 0 22.592-10.080 22.592-22.592s-10.080-22.56-22.592-22.56zM825.824 218.368h-290.56v67.072c0 40.736 33.12 73.952 73.952 73.952h142.624c40.8 0 74.016-33.184 74.016-73.952v-67.072zM968.992 712.576h-401.184l20.256 47.52 26.624 62.656c1.312 3.168 2.048 6.592 2.048 10.304s-0.736 7.136-2.048 10.304-3.328 6.016-5.696 8.352c-2.432 2.432-5.312 4.288-8.384 5.696-3.136 1.312-6.56 2.080-10.304 2.080h-156.704c-3.616 0-7.136-0.768-10.304-2.080s-6.016-3.296-8.352-5.696c-2.432-2.432-4.288-5.28-5.696-8.352-1.312-3.168-2.080-6.592-2.080-10.304s0.768-7.136 2.080-10.304l46.848-110.144h-401.152c-12.512 0-22.592-10.080-22.592-22.592v-630.944c0-12.512 10.080-22.56 22.592-22.56h914.112c12.512 0 22.56 10.048 22.56 22.56v630.912c-0.064 12.512-10.176 22.592-22.688 22.592h0.064zM511.968 813.536c12.512 0 22.592-10.080 22.592-22.592s-10.080-22.592-22.592-22.592c-12.512 0-22.592 10.080-22.592 22.592 0 12.416 10.080 22.592 22.592 22.592zM937.76 119.616c0-12.512-10.112-22.624-22.624-22.624h-806.272c-12.512 0-22.592 10.112-22.592 22.624v478.080c0 12.512 10.080 22.592 22.592 22.592h806.272c12.512 0 22.624-10.080 22.624-22.592v-478.080z" />
<glyph unicode="&#xe623;" glyph-name="large-energyefficient" d="M624.384 918.688c-5.504 8.096-15.68 11.68-25.056 8.864s-15.936-11.296-16.064-21.184c-3.2-165.44-97.888-247.52-189.472-327.040-111.104-96.32-226.080-196.032-157.472-432.896 10.016-28.512 25.568-50.208 43.168-67.168l-71.424-76.32c-8.48-9.12-7.968-23.36 1.024-31.84 4.384-4.096 9.888-6.016 15.424-6.016 6.016 0 12.064 2.432 16.448 7.2l74.752 79.904c39.584-22.976 77.728-27.616 80.416-28 16.96-2.048 33.76-3.072 50.112-3.072 127.296 0 230.176 62.048 289.792 174.592 100.832 190.88 57.152 474.656-111.616 723.072zM592.128 389.856l-103.776-160.064c-2.048-2.56-3.456-4.48-6.304-3.968-2.816 0.384-4.896 2.816-4.736 5.792l33.408 124.224-64.224-0.128c-2.304 0.128-4.096-0.128-5.664 1.28s-2.176 3.584-1.536 5.504l112.032 152.096c2.56 3.456 3.456 4.48 6.304 4.096s4.896-2.976 4.768-5.664l-32.896-116 55.872-0.128c1.92 0.384 3.968-0.128 5.408-1.536 1.408-1.536 2.048-3.616 1.408-5.536z" />
<glyph unicode="&#xe624;" glyph-name="large-enterprise" d="M959.456 697.536h-477.152c-11.808 0-20.672-8.864-20.672-20.672v-664.768c0-11.808 8.864-20.704 20.672-20.704h477.152c11.84 0 20.704 8.864 20.704 20.704v664.768c0 11.808-8.864 20.672-20.704 20.672zM619.68 190.848c0-4.416-2.944-7.392-7.392-7.392h-91.584c-4.416 0-7.392 2.944-7.392 7.392v91.584c0 4.416 2.944 7.392 7.392 7.392h91.584c4.448 0 7.392-2.944 7.392-7.392v-91.584zM619.68 356.288c0-4.416-2.944-7.392-7.392-7.392h-91.584c-4.416 0-7.392 2.944-7.392 7.392v91.584c0 4.416 2.944 7.392 7.392 7.392h91.584c4.448 0 7.392-2.944 7.392-7.392v-91.584zM619.68 520.256c0-4.416-2.944-7.392-7.392-7.392h-91.584c-4.416 0-7.392 2.944-7.392 7.392v91.584c0 4.416 2.944 7.392 7.392 7.392h91.584c4.448 0 7.392-2.944 7.392-7.392v-91.584zM773.344 190.848c0-4.416-2.944-7.392-7.392-7.392h-91.584c-4.448 0-7.392 2.944-7.392 7.392v91.584c0 4.416 2.944 7.392 7.392 7.392h91.584c4.448 0 7.392-2.944 7.392-7.392v-91.584zM773.344 356.288c0-4.416-2.944-7.392-7.392-7.392h-91.584c-4.448 0-7.392 2.944-7.392 7.392v91.584c0 4.416 2.944 7.392 7.392 7.392h91.584c4.448 0 7.392-2.944 7.392-7.392v-91.584zM773.344 520.256c0-4.416-2.944-7.392-7.392-7.392h-91.584c-4.448 0-7.392 2.944-7.392 7.392v91.584c0 4.416 2.944 7.392 7.392 7.392h91.584c4.448 0 7.392-2.944 7.392-7.392v-91.584zM925.504 190.848c0-4.416-2.976-7.392-7.392-7.392h-91.616c-4.416 0-7.392 2.944-7.392 7.392v91.584c0 4.416 2.976 7.392 7.392 7.392h91.616c4.416 0 7.392-2.944 7.392-7.392v-91.584zM925.504 356.288c0-4.416-2.976-7.392-7.392-7.392h-91.616c-4.416 0-7.392 2.944-7.392 7.392v91.584c0 4.416 2.976 7.392 7.392 7.392h91.616c4.416 0 7.392-2.944 7.392-7.392v-91.584zM925.504 520.256c0-4.416-2.976-7.392-7.392-7.392h-91.616c-4.416 0-7.392 2.944-7.392 7.392v91.584c0 4.416 2.976 7.392 7.392 7.392h91.616c4.416 0 7.392-2.944 7.392-7.392v-91.584zM381.856 898.464h-314.656c-11.808 0-20.672-8.864-20.672-20.704v-865.696c0-11.808 8.864-20.704 20.672-20.704h314.656c11.808 0 20.672 8.864 20.672 20.704v865.696c0 11.808-8.864 20.704-20.672 20.704zM198.656 190.848c0-4.416-2.944-7.392-7.392-7.392h-90.112c-4.416 0-7.392 2.944-7.392 7.392v91.584c0 4.416 2.944 7.392 7.392 7.392h91.584c4.416 0 7.392-2.944 7.392-7.392v-91.584h-1.472zM198.656 356.288c0-4.416-2.944-7.392-7.392-7.392h-90.112c-4.416 0-7.392 2.944-7.392 7.392v91.584c0 4.416 2.944 7.392 7.392 7.392h91.584c4.416 0 7.392-2.944 7.392-7.392v-91.584h-1.472zM198.656 520.256c0-4.416-2.944-7.392-7.392-7.392h-90.112c-4.416 0-7.392 2.944-7.392 7.392v91.584c0 4.416 2.944 7.392 7.392 7.392h91.584c4.416 0 7.392-2.944 7.392-7.392v-91.584h-1.472zM198.656 676.896c0-4.416-2.944-7.392-7.392-7.392h-90.112c-4.416 0-7.392 2.944-7.392 7.392v91.584c0 4.416 2.944 7.392 7.392 7.392h91.584c4.416 0 7.392-2.944 7.392-7.392v-91.584h-1.472zM350.848 190.848c0-4.416-2.944-7.392-7.392-7.392h-90.112c-4.416 0-7.392 2.944-7.392 7.392v91.584c0 4.416 2.944 7.392 7.392 7.392h91.584c4.416 0 7.392-2.944 7.392-7.392v-91.584h-1.472zM350.848 356.288c0-4.416-2.944-7.392-7.392-7.392h-90.112c-4.416 0-7.392 2.944-7.392 7.392v91.584c0 4.416 2.944 7.392 7.392 7.392h91.584c4.416 0 7.392-2.944 7.392-7.392v-91.584h-1.472zM350.848 520.256c0-4.416-2.944-7.392-7.392-7.392h-90.112c-4.416 0-7.392 2.944-7.392 7.392v91.584c0 4.416 2.944 7.392 7.392 7.392h91.584c4.416 0 7.392-2.944 7.392-7.392v-91.584h-1.472zM350.848 676.896c0-4.416-2.944-7.392-7.392-7.392h-90.112c-4.416 0-7.392 2.944-7.392 7.392v91.584c0 4.416 2.944 7.392 7.392 7.392h91.584c4.416 0 7.392-2.944 7.392-7.392v-91.584h-1.472z" />
<glyph unicode="&#xe625;" glyph-name="large-e-value" d="M970.272 928.512h-916.192c-12.032 0-22.56-10.528-22.56-22.56v-917.696c0-12.032 10.528-22.56 22.56-22.56h916.192c12.032 0 22.56 10.528 22.56 22.56v917.696c0 12.032-9.024 22.56-22.56 22.56zM219.552 43.904c0-12.032-10.528-22.56-22.56-22.56s-22.56 10.528-22.56 22.56v258.752c0 12.032 10.528 22.56 22.56 22.56s22.56-10.528 22.56-22.56v-258.752zM309.824 104.096c0-12.032-10.528-22.56-22.56-22.56s-22.56 10.528-22.56 22.56v198.592c0 12.032 10.528 22.56 22.56 22.56s22.56-10.528 22.56-22.56v-198.592zM400.096 104.096c0-12.032-10.528-22.56-22.56-22.56s-22.56 10.528-22.56 22.56v198.592c0 12.032 10.528 22.56 22.56 22.56s22.56-10.528 22.56-22.56v-198.592zM490.336 104.096c0-12.032-10.528-22.56-22.56-22.56s-22.56 10.528-22.56 22.56v198.592c0 12.032 10.528 22.56 22.56 22.56s22.56-10.528 22.56-22.56v-198.592zM580.608 104.096c0-12.032-10.528-22.56-22.56-22.56s-22.56 10.528-22.56 22.56v198.592c0 12.032 10.528 22.56 22.56 22.56s22.56-10.528 22.56-22.56c0 0 0-198.592 0-198.592zM670.88 104.096c0-12.032-10.528-22.56-22.56-22.56s-22.56 10.528-22.56 22.56v198.592c0 12.032 10.528 22.56 22.56 22.56s22.56-10.528 22.56-22.56v-198.592zM694.976 614.080h-299.392c7.52-75.232 66.208-114.336 130.88-114.336 69.184 0 124.864 48.128 124.864 48.128l42.112-78.24c0 0-66.176-61.664-174.496-61.664-144.416 0-233.184 103.808-233.184 227.168 0 133.888 91.744 227.168 221.152 227.168 124.864 0 192.576-91.776 192.576-206.112-1.504-12.032-4.512-42.144-4.512-42.144zM761.152 104.096c0-12.032-10.528-22.56-22.56-22.56s-22.56 10.528-22.56 22.56v198.592c0 12.032 10.528 22.56 22.56 22.56s22.56-10.528 22.56-22.56v-198.592zM851.424 43.904c0-12.032-10.528-22.56-22.56-22.56s-22.56 10.528-22.56 22.56v258.752c0 12.032 10.528 22.56 22.56 22.56s22.56-10.528 22.56-22.56v-258.752zM502.4 779.552c-55.648 0-93.28-34.624-103.808-90.272h189.536c-1.504 58.656-37.632 90.272-85.76 90.272z" />
<glyph unicode="&#xe626;" glyph-name="large-giftcard" d="M274.624 452c11.232 0 22.528 2.688 32.128 5.856-51.008 65.088-73.632 75.168-79.68 76.8-1.632-3.648-2.88-11.328-2.784-16.192 5.664-66.432 38.048-66.432 50.336-66.464v0zM449.28 519.68c0 4.416-1.344 11.488-2.88 14.88-6.048-1.536-28.672-11.712-79.68-76.8 9.6-3.168 21.28-6.432 32.224-5.856 12.288 0.096 44.48 0.288 50.336 67.776zM968.672 774.656h-913.408c-12.448 0-22.624-10.048-22.624-22.624v-600.416c0-12.448 10.176-22.624 22.624-22.624h913.472c12.48 0 22.624 10.144 22.624 22.624v600.416c-0.032 12.576-10.24 22.624-22.688 22.624zM937.408 212.256c0-12.448-10.144-22.624-22.624-22.624h-805.664c-12.448 0-22.624 10.176-22.624 22.624v477.696c0 12.448 10.176 22.624 22.624 22.624h805.664c12.48 0 22.624-10.144 22.624-22.624v-477.696zM131.744 234.88h760.512v432.512h-760.512v-432.512zM587.008 533.984h218.368c12.448 0 22.624-10.176 22.624-22.624s-10.176-22.624-22.624-22.624h-218.368c-12.448 0-22.624 10.144-22.624 22.624s10.176 22.624 22.624 22.624zM587.008 413.44h218.368c12.448 0 22.624-10.112 22.624-22.624 0-12.48-10.176-22.624-22.624-22.624h-218.368c-12.448 0-22.624 10.176-22.624 22.624 0 12.48 10.176 22.624 22.624 22.624zM196.64 584.288c7.936 8.16 18.208 12.448 29.792 12.448 19.744 0 50.144-10.848 111.392-87.424 61.248 76.608 91.648 87.424 111.392 87.424 11.488 0 21.856-4.32 29.792-12.448 16.48-16.96 16.576-44.96 16.384-50.432-8.256-96.256-63.36-110.432-95.488-110.432-4.32 0-8.544 0.384-12.768 0.864l40.16-86.752c5.28-11.328 0.288-24.736-11.008-30.016-3.072-1.44-6.336-2.080-9.472-2.080-8.512 0-16.672 4.864-20.512 13.12l-48.032 103.52-47.936-103.52c-3.84-8.288-11.968-13.12-20.512-13.12-3.168 0-6.432 0.672-9.472 2.080-11.328 5.28-16.192 18.688-11.008 30.016l40.192 86.752c-4.608-0.608-9.216-0.864-13.888-0.864-32.128 0-87.328 14.176-95.392 109.088-0.192 6.816-0.096 34.816 16.384 51.776z" />
<glyph unicode="&#xe627;" glyph-name="large-globe" d="M994.528 447.008c0-265.92-215.584-481.536-481.536-481.536s-481.504 215.584-481.504 481.536c0 265.92 215.584 481.504 481.504 481.504s481.536-215.584 481.536-481.504zM513.408 883.168c-240.768 0-436.576-195.808-436.576-436.576s195.808-436.576 436.576-436.576c240.736 0 436.576 195.808 436.576 436.576s-195.808 436.576-436.576 436.576zM118.816 432.48h165.632c1.024-60.096 8.48-117.088 21.184-168.608h-142.272c-26.592 50.848-42.496 108-44.544 168.608zM534.208 687.232v148.832c49.312-12.576 94.24-68.832 124.928-148.832h-124.928zM673.248 645.632c15.296-51.488 24.896-110.048 27.232-171.552h-166.272v171.552h139.040zM492.608 836.032v-148.704h-124.928c30.816 79.744 75.616 136.096 124.928 148.704zM492.608 645.632v-171.552h-166.272c2.304 61.504 11.936 120.064 27.232 171.552h139.072zM284.704 474.080h-165.248c4.384 62.272 23.104 120.576 53.024 171.552h137.376c-14.272-51.872-23.104-109.92-25.184-171.552zM325.92 432.48h166.656v-168.608h-143.68c-13.6 51.232-21.824 108.768-22.976 168.608zM492.608 222.304v-165.248c-52.64 13.472-100.16 76.672-130.976 165.248h130.976zM534.208 57.024v165.248h130.976c-30.688-88.608-78.208-151.776-130.976-165.248zM534.208 263.904v168.608h166.688c-1.152-59.84-9.376-117.376-22.976-168.608h-143.68zM742.464 432.48h165.664c-2.176-60.608-17.984-117.888-44.544-168.608h-142.272c12.704 51.616 20.16 108.64 21.184 168.608zM742.208 474.080c-2.048 61.504-10.912 119.552-25.184 171.552h137.376c29.92-50.976 48.672-109.28 53.024-171.552h-165.248zM826.304 687.232h-122.24c-20.16 57.024-47.392 104.512-79.104 138.176 80.896-23.776 151.008-72.928 201.344-138.176zM402.080 825.504c-31.84-33.632-58.944-81.152-79.232-138.176h-122.24c50.208 65.088 120.448 114.272 201.472 138.176zM188.544 222.304h128.8c20.672-64.448 49.952-117.888 84.736-154.592-87.712 25.792-162.688 81.152-213.536 154.592zM624.992 67.68c34.784 36.864 64.064 90.272 84.768 154.592h128.8c-50.976-73.312-125.984-128.8-213.536-154.592z" />
<glyph unicode="&#xe628;" glyph-name="large-graphics-card" d="M502.464 191.136h342.56v363.84h-342.56v-363.84zM674.688 485.344c59.2 0 107.328-48 107.328-107.328 0-59.2-48-107.328-107.328-107.328-59.2 0-107.328 48-107.328 107.328s48 107.328 107.328 107.328zM973.632 640.48h-757.792v47.904c0 11.904-4.8 23.424-13.248 31.904l-94.080 94.080c-17.632 17.632-46.176 17.632-63.808 0s-17.632-46.176 0-63.808l80.832-80.832v-561.472c0-24.864 20.192-45.184 45.152-45.184s45.152 20.256 45.152 45.184v104.512h191.296v-87.488c0-12.384 10.080-22.496 22.528-22.496h487.488c12.416 0 22.528 10.048 22.528 22.496v87.488h33.824c12.448 0 22.528 10.048 22.528 22.496v382.72c0.096 12.416-9.984 22.528-22.4 22.496v0zM308 269.056c0-10.88-8.864-19.744-19.776-19.744h-43.2c-10.912 0-19.776 8.864-19.776 19.744v111.008c0 10.944 8.864 19.808 19.776 19.808h43.2c10.912 0 19.776-8.864 19.776-19.808v-111.008zM310.848 459.072c0-10.912-8.864-19.776-19.776-19.776h-46.080c-10.912 0-19.776 8.864-19.776 19.776v110.88c0 10.912 8.864 19.776 19.776 19.776h46.080c10.912 0 19.776-8.864 19.776-19.776v-110.88zM890.048 168.448c0-12.384-10.080-22.496-22.56-22.496h-387.68c-12.416 0-22.528 10.048-22.528 22.496v409.056c0 12.416 10.080 22.528 22.528 22.528h387.68c12.448 0 22.56-10.080 22.56-22.528v-409.056zM672.224 302.816h2.016c41.984 0 76 32.192 77.376 73.248 0.192 7.552-0.704 15.072-2.752 22.432-0.928 3.424-3.552 6.176-7.072 7.2-3.424 1.12-7.136 0.448-9.984-1.824s-7.552-4.992-13.792-4.992c-12.128 0-22.080 9.952-22.080 22.112 0 4.672 1.536 9.312 4.416 13.088 2.112 2.848 2.752 6.624 1.504 9.984-1.184 3.36-3.936 5.92-7.424 6.72-6.016 1.536-11.712 2.24-17.408 2.464h-1.984c-41.472 0-76.128-32.928-77.376-73.312-0.672-19.744 6.432-38.688 20.064-53.056 14.208-15.008 33.472-23.552 54.496-24.064v0z" />
<glyph unicode="&#xe629;" glyph-name="large-harddrive" d="M832.416 929.568h-640.832c-12.448 0-22.592-10.144-22.592-22.592v-917.984c0-12.448 10.144-22.592 22.592-22.592h640.8c12.48 0 22.624 10.144 22.624 22.592v917.984c0.032 12.448-10.144 22.592-22.592 22.592zM240.64 885.248c16.192 0 29.408-13.216 29.408-29.408s-13.088-29.408-29.408-29.408c-16.32 0-29.408 13.216-29.408 29.408s13.216 29.408 29.408 29.408zM240.64 20.672c-16.192 0-29.408 13.184-29.408 29.408 0 16.192 13.088 29.408 29.408 29.408s29.408-13.216 29.408-29.408c0-16.192-13.216-29.408-29.408-29.408zM445.856 282.432l-18.88-54.688c17.728-20.672 23.776-50.048 13.088-76.928-15.392-38.784-59.072-57.664-97.856-42.368-38.656 15.328-57.664 59.104-42.24 97.888 10.784 27.104 35.328 44.448 62.528 47.136l23.104 52.448c-82.976 45.056-139.456 133.056-139.456 233.856 0 146.528 119.296 265.824 265.824 265.824s265.824-119.168 265.824-265.824-119.296-265.856-265.824-265.856c-22.848 0-44.96 3.232-66.144 8.64l0.032-0.128zM805.728 50.112c0-12.448-10.144-22.592-22.624-22.592h-167.072c-8.992 0-17.184 5.408-20.8 13.76-3.552 8.352-1.76 17.984 4.416 24.544l167.232 175.424c6.4 6.688 16.192 8.864 24.736 5.408s14.24-11.648 14.24-20.896l-0.128-175.552v-0.096zM783.36 826.432c-16.224 0-29.408 13.088-29.408 29.408s13.056 29.408 29.408 29.408c16.192 0 29.408-13.216 29.408-29.408s-13.216-29.408-29.408-29.408zM512 760.416c-121.888 0-220.768-98.88-220.768-220.768 0-82.72 45.6-154.752 112.896-192.544l33.76 76.672c6.304 13.6 22.336 19.648 36.096 13.6 12.864-5.792 18.88-20.416 14.656-33.536l-27.232-78.848c16.32-3.872 33.152-6.016 50.592-6.016 121.92 0 220.768 98.88 220.768 220.768 0 121.92-98.848 220.672-220.768 220.672zM512 465.312c-40.32 0-73.088 32.768-73.088 73.088s32.768 73.088 73.088 73.088c40.352 0 73.056-32.768 73.056-73.088s-32.704-73.088-73.056-73.088z" />
<glyph unicode="&#xe62a;" glyph-name="large-help" d="M969.504 928.512h-915.456c-12.416 0-22.56-10.112-22.56-22.56v-916.48c0-12.416 10.112-22.56 22.56-22.56h915.456c12.416 0 22.56 10.144 22.56 22.56v916.48c0 12.416-9.984 22.56-22.56 22.56zM504.864 124.992c-26.144 0-47.296 21.152-47.296 47.296s21.152 47.296 47.296 47.296c26.176 0 47.424-21.152 47.424-47.296s-21.28-47.296-47.456-47.296zM551.52 387.84v-29.472h-0.512c-2.816-22.944-22.304-40.896-46.016-40.896s-43.2 17.824-46.048 40.896h-0.256v2.688c-0.128 1.024-0.256 2.048-0.256 3.072s0.256 2.048 0.256 3.072v27.424c0 109.504 124.608 126.944 124.608 204.64 0 35.52-31.68 62.688-73.216 62.688-30.528 0-58.208-15.904-71.808-25.12-7.84-8.064-18.72-13.088-30.752-13.088-23.712 0-42.944 19.232-42.944 42.944 0 13.984 6.784 26.304 17.056 34.112 15.136 13.344 63.2 49.504 136.544 49.504 85.376 0 164.64-52.832 164.64-141.92 0.128-124.608-131.296-138.976-131.296-220.544z" />
<glyph unicode="&#xe62b;" glyph-name="large-house" d="M477.568 70.304v258.112c0 12.448 10.080 22.656 22.656 22.656h190.24c12.448 0 22.656-10.080 22.656-22.656v-307.392c0-12.448 10.080-22.656 22.656-22.656h149.728c12.448 0 22.656 10.080 22.656 22.656v494.4c0 7.552-3.712 14.496-9.952 18.688l-372.576 251.488c-7.68 5.152-17.632 5.152-25.28 0l-372.224-251.488c-6.24-4.192-9.952-11.264-9.952-18.688v-494.4c0-12.448 10.080-22.656 22.656-22.656h314.208c12.448 0 22.656 10.080 22.656 22.656v51.552l-0.128-2.272zM984.672 583.616l-459.008 310.016c-7.68 5.152-17.632 5.152-25.28 0l-207.52-140.256v43.040c0 12.448-10.080 22.656-22.656 22.656h-129.472c-12.448 0-22.656-10.080-22.656-22.656v-160.992l-76.608-51.776c-10.304-6.944-13.056-20.96-6.112-31.392 4.32-6.464 11.488-9.952 18.688-9.952 4.32 0 8.768 1.184 12.576 3.84l433.728 292.864c7.68 5.152 17.632 5.152 25.312 0l-0.128 0.256 433.856-292.992c10.304-6.944 24.448-4.32 31.392 6.112 6.944 10.304 4.192 24.32-6.112 31.296z" />
<glyph unicode="&#xe62c;" glyph-name="large-infrastructure" d="M461.664 901.856c-9.152 4.544-18.272 1.504-25.888-4.544l-108.128-106.592-130.944 130.944c-9.12 9.152-24.352 9.152-31.968 0l-126.4-126.4c-9.152-9.12-9.152-22.816 0-31.968l130.944-130.944-112.672-111.136c-6.080-6.080-9.152-16.736-4.576-24.352 3.040-9.152 12.192-13.696 21.344-13.696l380.672-1.504c6.080 0 12.192 3.040 16.736 6.080 4.576 4.544 6.080 10.656 6.080 16.768l-1.504 377.632c0 9.12-6.080 16.736-13.696 19.808zM574.336 481.6v0h377.6c9.152 0 18.272 6.080 21.312 13.696 3.072 9.152 1.536 18.272-4.544 24.352l-109.632 108.096 130.944 130.944c4.544 4.576 6.080 10.656 6.080 16.768s-3.040 12.192-6.080 16.736l-126.4 126.368c-9.12 9.152-24.352 9.152-33.504 0l-132.48-132.448-109.6 108.096c-6.080 6.080-16.768 7.616-24.352 4.576-9.152-3.040-13.696-10.656-13.696-19.808l1.504-374.56c0-12.192 9.12-22.816 22.848-22.816zM856.032 260.832l106.592 109.6c6.080 6.080 7.616 16.768 4.576 24.352-3.040 9.12-12.192 13.696-21.312 13.696v0h-373.056c-12.192 0-22.848-10.656-22.848-22.848v-383.712c0-9.152 6.080-18.272 13.696-21.312 3.040-1.504 6.080-1.504 9.152-1.504 6.080 0 12.16 3.040 16.736 7.616l111.136 114.208 130.944-130.944c4.544-4.544 10.656-6.080 16.736-6.080s12.192 3.040 16.736 6.080l126.4 126.4c4.544 4.576 6.080 10.656 6.080 16.768s-3.040 12.192-6.080 16.736l-135.52 130.976zM454.048 410.016v0l-380.672-1.536c-9.152 0-18.272-6.080-21.344-13.696-3.040-9.152-1.504-18.272 4.576-24.352l111.136-109.6-129.44-129.44c-9.152-9.152-9.152-22.848 0-32l126.4-126.368c4.544-4.544 10.656-6.080 16.736-6.080s12.192 1.536 16.768 6.080l130.944 130.944 108.096-106.592c4.544-4.576 10.656-6.080 16.768-6.080 3.040 0 6.080 0 9.12 1.504 9.152 3.040 13.696 12.192 13.696 21.312l1.504 374.56c0 6.080-3.040 12.192-6.080 16.768-7.616 1.504-12.192 4.576-18.272 4.576z" />
<glyph unicode="&#xe62d;" glyph-name="large-inktoner" d="M965.056 778.88h-906.208c-15.872 0-28.288-15.808-28.288-31.68v-41.696c0-15.872 12.416-31.776 28.288-31.776h31.872v-524.928c0-7.872 1.632-16.672 6.848-21.888s10.784-9.888 18.784-9.888h374.72c7.904 0 15.104 4.672 20.32 9.888l102.656 102.368c5.184 5.184 12.352 8.064 20.352 8.064h273.248c15.872 0 25.568 15.136 25.568 30.944v405.344h31.872c15.872 0 28.32 15.968 28.32 31.776v41.792c-0.032 15.872-12.48 31.68-28.352 31.68v0zM291.296 326.432c-65.28 0-118.432 53.056-118.432 118.432 0 36.96 21.664 61.728 40.736 83.36 3.936 4.512 8 9.056 11.744 13.664 7.488 9.344 31.296 54.112 45.728 82.976 3.744 7.488 11.456 12.224 19.84 12.32 8 0.288 16.288-4.32 20.128-11.84 15.008-27.808 42.176-75.968 50.72-86.176 2.208-2.88 4.608-5.664 7.232-8.576 19.072-22.528 40.704-48.128 40.704-85.792 0.096-65.344-52.96-118.432-118.432-118.432l0.032 0.064zM382.752 163.072h-224.736c-12.416 0-22.528 10.112-22.528 22.56 0 12.384 10.112 22.496 22.528 22.496h224.704c12.416 0 22.528-10.112 22.528-22.496 0.032-12.448-9.984-22.56-22.496-22.56zM475.36 163.072h-3.168c-12.416 0-22.528 10.112-22.528 22.56 0 12.384 10.112 22.496 22.528 22.496h3.168c12.416 0 22.528-10.112 22.528-22.496 0.032-12.448-10.080-22.56-22.528-22.56z" />
<glyph unicode="&#xe62e;" glyph-name="large-keyboard" d="M973.312 708.48h-919.648c-12.256 0-22.176-9.92-22.176-22.176v-476.512c0-12.256 9.92-22.304 22.176-22.304h919.648c12.256 0 22.176 10.016 22.176 22.304v476.416c0 12.352-9.92 22.272-22.176 22.272zM825.888 274.816v115.936h73.632v-112.256c-1.024-1.056-2.016-2.304-2.88-3.68h-70.752zM250.048 274.816v115.936h531.36v-115.936h-531.36zM135.424 274.816c-1.152 1.696-2.496 3.264-4.032 4.64v111.328h74.336v-115.936l-70.304-0.032zM133.024 613.344h72.576v-65.472h-74.336v63.808c0.672 0.48 1.248 1.056 1.728 1.632l0.032 0.032zM250.048 613.344h70.752v-65.472h-70.752v65.472zM365.248 613.344h70.752v-65.472h-70.752v65.472zM480.32 613.344h70.752v-65.472h-70.752v65.472zM595.552 613.344h70.752v-65.472h-70.752v65.472zM710.656 613.344h70.752v-65.472h-70.752v65.472zM825.888 613.344h73.024c0.224-0.192 0.416-0.48 0.608-0.672v-64.768h-73.696v65.472l0.064-0.032zM131.264 503.328h74.336v-68.16h-74.336v68.16zM250.048 503.328h70.752v-68.16h-70.752v68.16zM365.248 503.328h70.752v-68.16h-70.752v68.16zM480.32 503.328h70.752v-68.16h-70.752v68.16zM595.552 503.328h70.752v-68.16h-70.752v68.16zM710.656 503.328h70.752v-68.16h-70.752v68.16zM825.888 503.328h73.632v-68.16h-73.632v68.16z" />
<glyph unicode="&#xe62f;" glyph-name="large-lightbulb" d="M510.4 928.512c-178.816 0-323.872-145.056-323.872-323.872 0-98.976 44.416-187.424 114.368-246.88v-99.872c0-28 22.72-50.816 50.848-50.816h7.584v-60.48h302.304v60.48h7.584c28.128 0 50.816 22.752 50.816 50.816v99.872c69.984 59.456 114.208 147.872 114.208 246.88 0 178.816-145.024 323.872-323.84 323.872zM661.888 533.888l-65.504-304.768c-2.304-10.656-11.68-17.888-22.048-17.888-1.568 0-3.2 0.128-4.736 0.544-12.192 2.688-20.032 14.624-17.344 26.944l57.92 269.728c-30.56-3.2-67.008 2.432-93.728 30.816-26.72-28.512-63.168-34.144-93.728-30.816l57.888-269.728c2.56-12.192-5.12-24.256-17.344-26.944-1.664-0.416-3.2-0.544-4.736-0.544-10.4 0-19.904 7.328-22.080 17.888l-65.472 304.768c-1.792 8.224 1.152 16.704 7.584 22.080s15.296 6.816 23.104 3.712c6.912-2.688 69.44-25.536 94.336 29.536 0.128 0.384 0.512 0.768 0.64 1.152 0.384 0.768 0.768 1.408 1.28 2.176 0.384 0.512 0.768 1.152 1.28 1.664 0.512 0.64 1.024 1.152 1.536 1.792 0.512 0.512 1.024 0.896 1.536 1.408s1.152 0.896 1.792 1.408c0.64 0.384 1.28 0.768 1.92 1.152 0.384 0.256 0.768 0.512 1.28 0.768 0.256 0.128 0.384 0.128 0.64 0.256 0.768 0.256 1.408 0.512 2.176 0.768 0.64 0.256 1.408 0.384 2.048 0.512 0.768 0.128 1.536 0.256 2.304 0.256 0.64 0 1.408 0.128 2.048 0.128 0.768 0 1.536-0.128 2.304-0.128 0.64-0.128 1.408-0.128 2.048-0.256 0.768-0.128 1.408-0.384 2.176-0.64s1.408-0.384 2.176-0.768c0.256-0.128 0.512-0.128 0.768-0.256 0.512-0.256 0.896-0.512 1.28-0.768 0.64-0.384 1.28-0.64 1.92-1.152 0.672-0.384 1.28-0.896 1.792-1.408 0.512-0.384 1.024-0.896 1.568-1.408 0.512-0.512 0.992-1.152 1.504-1.792 0.416-0.512 0.896-1.024 1.312-1.664 0.512-0.768 0.864-1.408 1.248-2.176 0.256-0.384 0.544-0.768 0.672-1.152 25.536-56.608 91.52-30.688 94.336-29.536 7.68 3.072 16.672 1.792 23.104-3.712 5.92-5.248 8.832-13.728 7.040-21.952h0.16zM359.168 72.384c0-28 22.72-50.848 50.848-50.848h12.704v-5.088c0-28.16 22.72-50.88 50.848-50.88h81.28c27.968 0 50.848 22.72 50.848 50.88v5.088h4.992c28.128 0 50.848 22.72 50.848 50.848v28.896h-302.304v-28.896h-0.064z" />
<glyph unicode="&#xe630;" glyph-name="large-location" d="M574.944 85.632l62.816 177.408c132.672 50.624 221.696 179.2 221.696 321.248 0 189.856-154.336 344.224-344.192 344.224-189.728 0-344.224-154.336-344.224-344.224 0-142.048 88.832-270.624 221.664-321.248l63.2-177.28 35.904-100.864c7.296-16.128 20-17.952 23.456-17.952s18.080 0.128 24.48 19.136l35.2 99.552zM515.2 730.816c80.768 0 146.56-65.632 146.56-146.4s-65.792-146.528-146.56-146.528-146.528 65.76-146.528 146.528c0 80.64 65.76 146.4 146.528 146.4z" />
<glyph unicode="&#xe631;" glyph-name="large-magnifying-glass" d="M966.4 112.448l-288.16 284.576c34.016 53.472 53.568 116.64 53.568 184.416 0 191.712-156.736 347.104-350.176 347.104-193.408 0-350.176-155.392-350.176-346.976 0-191.712 156.8-347.104 350.176-347.104 63.328 0 122.656 16.736 173.952 45.92l290.624-287.008c32.704-32.352 86.048-31.968 119.328 0.768 33.216 32.992 33.6 85.92 0.864 118.304zM154.656 581.536c0 124.32 101.696 224.96 227.136 224.96s227.008-100.768 227.008-224.96c0-124.32-101.696-224.96-227.008-224.96-125.6-0.128-227.136 100.672-227.136 224.96z" />
<glyph unicode="&#xe632;" glyph-name="large-mail" d="M992.992 726.4c0 12.416-10.080 22.4-22.496 22.4v0l-916.576-0.288c-5.952 0-11.648-2.4-15.872-6.528-4.224-4.32-6.528-9.984-6.528-15.968l0.192-553.696c0-12.448 10.080-22.432 22.496-22.432v0l916.48 0.384c5.952 0 11.648 2.432 15.872 6.56 4.224 4.192 6.528 9.952 6.528 15.872l-0.096 553.696zM936.384 208.448c-4.48-4.8-10.496-7.36-16.672-7.36-5.376 0-10.912 1.952-15.104 5.952l-259.552 237.12-119.744-84.736c-3.84-2.752-8.448-4.128-12.992-4.128s-9.024 1.376-12.992 4.128l-118.656 83.84-256.864-235.040c-4.32-3.936-9.728-5.888-15.2-5.888-6.048 0-12.128 2.496-16.544 7.328-8.384 9.12-7.68 23.36 1.44 31.744l249.76 228.512-246.176 174.080c-10.112 7.104-12.512 21.152-5.376 31.36 7.2 10.080 21.152 12.512 31.36 5.376l389.472-275.2 394.208 278.848c10.048 7.2 24.128 4.704 31.264-5.408 7.232-10.080 4.8-24.128-5.376-31.36l-249.952-176.96 252.256-230.496c9.152-8.448 9.824-22.496 1.44-31.744v0.032z" />
<glyph unicode="&#xe633;" glyph-name="large-memory" d="M969.344 612.736h-915.296c-12.48 0-22.56-10.176-22.56-22.656v-284.256c0-12.512 10.080-22.56 22.56-22.56h31.232c0 0.32-0.096 0.576-0.096 0.928v80.992c0 12.448 10.080 22.56 22.56 22.56s22.56-10.112 22.56-22.56v-80.992c0-0.256-0.096-0.576-0.096-0.928h49.152c0 0.32-0.096 0.576-0.096 0.928v80.992c0 12.448 10.080 22.56 22.56 22.56s22.56-10.112 22.56-22.56v-80.992c0-0.256-0.096-0.576-0.096-0.928h49.184c0 0.32-0.096 0.576-0.096 0.928v80.992c0 12.448 10.080 22.56 22.56 22.56s22.56-10.112 22.56-22.56v-80.992c0-0.256-0.096-0.576-0.096-0.928h49.184c0 0.32-0.096 0.576-0.096 0.928v80.992c0 12.448 10.080 22.56 22.56 22.56s22.56-10.112 22.56-22.56v-80.992c0-0.256-0.096-0.576-0.096-0.928h49.376c-0.096 0.928-0.288 1.824-0.288 2.752v80.992c0 12.512 10.080 22.56 22.56 22.56s22.56-10.048 22.56-22.56v-80.992c0-0.928-0.192-1.888-0.288-2.752h119.36c-0.192 1.504-0.48 3.072-0.48 4.672 0 25.44 20.672 46.112 46.080 46.112 25.504 0 46.112-20.64 46.112-46.112 0-1.632-0.288-3.2-0.48-4.672h96.608c0 0.32-0.096 0.576-0.096 0.928v80.992c0 12.448 10.080 22.56 22.56 22.56s22.56-10.112 22.56-22.56v-80.992c0-0.256-0.096-0.576-0.096-0.928h49.664c-0.096 0.928-0.288 1.824-0.288 2.752v80.992c0 12.512 10.048 22.56 22.56 22.56s22.56-10.048 22.56-22.56v-80.992c0-0.928-0.192-1.888-0.32-2.752h16.352c12.48 0 22.56 10.048 22.56 22.56v284.256c0.096 12.48-9.984 22.656-22.464 22.656h0.16zM508.928 474.336c0-12.48-10.080-22.56-22.56-22.56h-380.416c-12.48 0-22.56 10.080-22.56 22.56v62.144c0 12.48 10.080 22.56 22.56 22.56h380.416c12.48 0 22.56-10.080 22.56-22.56v-62.144zM742.4 474.336c0-12.48-10.080-22.56-22.56-22.56h-101.728c-12.48 0-22.56 10.080-22.56 22.56v62.144c0 12.48 10.080 22.56 22.56 22.56h101.728c12.48 0 22.56-10.080 22.56-22.56v-62.144zM923.2 530.784c-12.512 0-22.56 10.080-22.56 22.56s10.048 22.56 22.56 22.56c12.448 0 22.56-10.080 22.56-22.56s-10.144-22.56-22.56-22.56z" />
<glyph unicode="&#xe634;" glyph-name="large-memorycarreader" d="M970.496 598.336h-915.072c-12.48 0-22.656-10.080-22.656-22.656v-255.456c0-12.48 10.176-22.624 22.656-22.624h915.072c12.512 0 22.656 10.144 22.656 22.624v255.456c0 12.576-10.144 22.656-22.656 22.656zM464.544 523.136h228.576c13.056 0 23.616-10.56 23.616-23.616s-10.56-23.616-23.616-23.616h-228.576c-13.056 0-23.616 10.56-23.616 23.616-0.096 13.056 10.56 23.616 23.616 23.616zM361.6 358.72h-246.912c-13.056 0-23.616 10.56-23.616 23.616s10.56 23.616 23.616 23.616h246.912c13.056 0 23.616-10.56 23.616-23.616s-10.56-23.616-23.616-23.616zM361.6 475.872h-246.912c-13.056 0-23.616 10.56-23.616 23.616s10.56 23.616 23.616 23.616h246.912c13.056 0 23.616-10.56 23.616-23.616 0.096-13.056-10.56-23.616-23.616-23.616zM919.776 358.624h-455.232c-13.056 0-23.616 10.56-23.616 23.616s10.56 23.584 23.616 23.584h455.232c13.024 0 23.584-10.528 23.584-23.584 0-12.96-10.56-23.616-23.584-23.616zM944.32 480.768c0-13.536-10.976-24.512-24.512-24.512h-123.424c-13.536 0-24.576 10.944-24.576 24.512v37.472c0 13.536 10.944 24.48 24.576 24.48h123.424c13.536 0 24.512-10.944 24.512-24.48v-37.472z" />
<glyph unicode="&#xe635;" glyph-name="large-missingimage" d="M201.28-1.248v-14.848c0-8.192-6.784-14.976-14.976-14.976h-124.864c-16.512 0-29.792 13.312-29.792 29.792v124.864c0 8.192 6.784 14.976 14.976 14.976h14.848c8.192 0 14.976-6.784 14.976-14.976v-95.072c0-8.32 6.656-14.848 14.848-14.848h95.072c8.192 0 14.976-6.656 14.976-14.976zM31.488 242.72c0-8.32 6.656-14.976 14.976-14.976h14.72c8.32 0 14.976 6.656 14.976 14.976v147.648c0 8.32-6.784 14.976-14.976 14.976h-14.72c-8.32 0-14.976-6.656-14.976-14.976v-147.648zM31.488 508.224c0-8.32 6.656-14.976 14.976-14.976h14.72c8.32 0 14.976 6.656 14.976 14.976v147.648c0 8.32-6.784 14.976-14.976 14.976h-14.72c-8.32 0-14.976-6.656-14.976-14.976v-147.648zM946.272 242.72c0-8.32 6.656-14.976 14.944-14.976h14.72c8.32 0 14.976 6.656 14.976 14.976v147.648c0 8.32-6.784 14.976-14.976 14.976h-14.72c-8.32 0-14.944-6.656-14.944-14.976v-147.648zM946.272 508.224c0-8.32 6.656-14.976 14.944-14.976h14.72c8.32 0 14.976 6.656 14.976 14.976v147.648c0 8.32-6.784 14.976-14.976 14.976h-14.72c-8.32 0-14.944-6.656-14.944-14.976v-147.648zM569.76 13.728c-8.32 0-14.976-6.656-14.976-14.976v-14.848c0-8.32 6.656-14.976 14.976-14.976h147.648c8.32 0 14.976 6.784 14.976 14.976v14.72c0 8.32-6.656 14.976-14.976 14.976l-147.648 0.128zM305.056 13.728c-8.32 0-14.976-6.656-14.976-14.976v-14.848c0-8.32 6.656-14.976 14.976-14.976h147.648c8.32 0 14.976 6.784 14.976 14.976v14.72c0 8.32-6.656 14.976-14.976 14.976l-147.648 0.128zM569.76 928.512c-8.32 0-14.976-6.656-14.976-14.976v-14.848c0-8.32 6.656-14.976 14.976-14.976h147.648c8.32 0 14.976 6.784 14.976 14.976v14.848c0 8.32-6.656 14.976-14.976 14.976h-147.648zM305.056 928.512c-8.32 0-14.976-6.656-14.976-14.976v-14.848c0-8.32 6.656-14.976 14.976-14.976h147.648c8.32 0 14.976 6.784 14.976 14.976v14.848c0 8.32-6.656 14.976-14.976 14.976h-147.648zM61.44 758.72h-14.848c-8.192 0-14.976 6.784-14.976 14.976v124.992c0 16.512 13.312 29.792 29.792 29.792h124.864c8.192 0 14.976-6.784 14.976-14.976v-14.848c0-8.192-6.784-14.976-14.976-14.976h-95.072c-8.32 0-14.848-6.656-14.848-14.848v-95.2c0-8.192-6.784-14.976-14.976-14.976zM821.792 898.688v14.848c0 8.192 6.784 14.976 14.976 14.976h124.864c16.512 0 29.792-13.312 29.792-29.792v-124.864c0-8.192-6.784-14.976-14.976-14.976h-14.848c-8.192 0-14.976 6.784-14.976 14.976v94.944c0 8.32-6.528 14.848-14.848 14.848h-95.072c-8.192 0-14.976 6.784-14.976 15.104zM961.632 138.72h14.848c8.192 0 14.976-6.784 14.976-14.944v-124.864c0-16.512-13.312-29.792-29.792-29.792h-124.864c-8.192 0-14.976 6.784-14.976 14.976v14.848c0 8.192 6.784 14.976 14.976 14.976h95.072c8.32 0 14.848 6.656 14.848 14.848v95.072c0 8.192 6.784 14.976 14.976 14.976z" />
<glyph unicode="&#xe636;" glyph-name="large-mobile" horiz-adv-x="1056" d="M348.32 642.88h325.44v-495.584h-325.44v495.584zM747.456 806.080h-22.784v75.968c0 25.632-20.768 46.4-46.4 46.4s-46.4-20.768-46.4-46.4v-75.968h-352.64c-12.832 0-23.2-10.368-23.2-23.2v-792.256c0-12.832 10.4-23.232 23.2-23.232h468.192c12.832 0 23.2 10.432 23.2 23.232v792.256c0 12.832-10.336 23.2-23.168 23.2v0zM431.968 764.352h155.552c12.8 0 23.2-10.4 23.2-23.2s-10.368-23.2-23.2-23.2h-155.552c-12.832 0-23.2 10.4-23.2 23.2s10.368 23.2 23.2 23.2zM533.728 12.192h-46.752c-12.832 0-23.2 10.4-23.2 23.232 0 12.768 10.4 23.2 23.2 23.2h46.752c12.832 0 23.2-10.4 23.2-23.2 0-12.832-10.4-23.232-23.2-23.232zM720.16 124.064c0-12.832-10.368-23.232-23.2-23.232h-371.84c-12.832 0-23.2 10.432-23.2 23.232v542.016c0 12.832 10.368 23.2 23.2 23.2h371.84c12.8 0 23.2-10.4 23.2-23.2v-542.016z" />
<glyph unicode="&#xe637;" glyph-name="large-mouse" d="M726.336 411.328h-422.336c-12.576 0-22.848-10.24-22.848-22.816v-258.88c0-56.576 34.144-163.616 163.616-163.616h140.768c56.608 0 163.616 34.144 163.616 163.616v258.88c0 12.544-10.272 22.816-22.816 22.816v0zM585.568 715.616h-46.176c0 33.632-6.56 93.184-48.256 141.408-40.928 47.488-104.448 71.456-188.768 71.456-12.576 0-22.848-10.272-22.848-22.848s10.272-22.848 22.848-22.848c70.336 0 122.176-18.624 153.984-55.296 32.32-37.216 37.344-85.472 37.344-111.904h-48.896c-129.344 0-163.616-107.040-163.616-163.616v-73.024c0-12.576 10.272-22.848 22.848-22.848h422.464c12.608 0 22.848 10.272 22.848 22.848v73.024c-0.16 129.472-107.232 163.616-163.776 163.648v0zM537.952 533.76c0-12.576-10.24-22.848-22.816-22.848s-22.848 10.272-22.848 22.848v87.392c0 12.576 10.272 22.848 22.848 22.848s22.816-10.272 22.816-22.848v-87.392z" />
<glyph unicode="&#xe638;" glyph-name="large-music" d="M913.76 905.888c0 0.512-0.128 0.896-0.128 1.408-0.128 1.28-0.128 2.688-0.512 4-0.288 0.896-0.672 1.792-1.024 2.56-0.256 0.768-0.512 1.664-0.864 2.464-0.416 0.8-1.056 1.536-1.568 2.304s-0.864 1.536-1.408 2.176c-0.672 0.64-1.408 1.28-2.016 1.792-0.672 0.512-1.184 1.28-1.952 1.792 0 0 0 0-0.128 0 0 0 0 0-0.128 0.128-0.512 0.384-1.152 0.64-1.824 0.896-0.992 0.512-1.92 1.152-2.944 1.536-0.416 0.128-0.768 0.128-1.184 0.384-1.248 0.384-2.56 0.896-3.936 1.024-0.544 0.128-1.024 0-1.568 0-1.248 0.128-2.432 0.128-3.744 0-0.64-0.128-1.248-0.256-2.016-0.384-1.024-0.128-2.016-0.256-3.104-0.64l-455.552-156.576c-9.12-3.072-15.296-11.712-15.296-21.472v-522.528c-32.256 32-78.816 52.32-130.72 52.32-97.056 0-176-70.56-176-157.312 0-86.816 78.912-157.504 176-157.504s176 70.56 176 157.504v417.12l410.336 142.688v-298.24c-32.288 32-78.848 52.352-130.752 52.352-97.056 0-175.968-70.56-175.968-157.344 0-86.816 78.912-157.504 175.968-157.504s176 70.56 176 157.504v434.208c0 0.384 0.128 0.64 0.128 0.896v192.416l-0.096 0.032zM796.768 747.808l-266.848-93.312c-2.496-0.896-5.024-1.28-7.456-1.28-9.376 0-18.112 5.792-21.344 15.168-4.096 11.84 2.048 24.672 13.888 28.8l266.848 93.312c11.84 4.096 24.672-2.048 28.8-13.888 4.224-11.712-2.048-24.672-13.888-28.8z" />
<glyph unicode="&#xe639;" glyph-name="large-network" d="M380.288 595.712h266.272c12.512 0 22.56 10.176 22.56 22.624v190.976c0 12.512-10.016 22.624-22.56 22.624h-266.272c-12.512 0-22.624-10.176-22.624-22.624v-191.040c0.064-12.512 10.080-22.528 22.624-22.56v0zM152.128 347.424c12.512 0 22.624 10.176 22.624 22.624v57.888l316.16-0.064v-57.76c0-12.512 10.176-22.56 22.528-22.56 12.512 0 22.624 10.176 22.624 22.56v57.76h316.16v-57.632c0-12.576 10.144-22.624 22.592-22.624 12.416 0 22.592 10.112 22.592 22.624v80.256c0 12.512-10.176 22.624-22.592 22.624h-338.624v57.888c0 12.512-10.176 22.624-22.624 22.624s-22.528-10.176-22.528-22.624v-57.888h-338.72c-5.952 0-11.808-2.336-16-6.688-4.192-4.256-6.688-9.952-6.688-16v-80.384c-0.064-12.544 10.080-22.624 22.496-22.624v0zM242.56 304.928h-180.736c-16.576 0-30.080-13.504-30.080-30.048v-180.736c0-16.576 13.44-30.048 30.080-30.048h180.736c16.576 0 30.080 13.504 30.080 30.048v180.64c0 16.64-13.504 30.112-30.080 30.112v0.032zM603.872 304.928h-180.864c-16.576 0-30.080-13.504-30.080-30.048v-180.736c0-16.576 13.44-30.048 30.080-30.048h180.736c16.576 0 30.016 13.504 30.016 30.048v180.64c0.064 16.64-13.312 30.112-29.888 30.112v0.032zM965.12 304.928h-180.8c-16.576 0-30.048-13.504-30.048-30.048v-180.736c0-16.576 13.504-30.048 30.048-30.048h180.736c16.576 0 30.016 13.504 30.016 30.048v180.64c0.064 16.64-13.44 30.112-29.952 30.112v0.032z" />
<glyph unicode="&#xe63a;" glyph-name="large-notebook" d="M993.184 201.728c-4.576 7.552-12.128 12.128-19.68 12.128h-323.968c-6.016 0-10.592-1.504-15.136-6.016l-24.224-22.752h-211.968l-22.72 22.752c-4.544 4.544-10.592 6.016-16.64 6.016h-304.256c-7.552 0-15.136-4.544-19.68-12.128s-4.544-15.136 0-22.72l25.728-43.904c4.544-6.016 12.128-10.592 19.68-10.592v0h862.944c7.552 0 15.136 3.008 18.144 9.088l28.704 42.4c6.080 9.056 6.080 18.112 3.072 25.728zM195.392 681.632h617.664v-331.488h-617.664v331.488zM128.768 253.216h753.92c12.128 0 22.72 10.592 22.72 22.72v476.864c0 12.096-10.592 22.72-22.72 22.72h-753.92c-12.096 0-22.72-10.592-22.72-22.72v-476.864c0-13.632 10.592-22.72 22.72-22.72zM149.952 704.352c0 12.128 10.592 22.72 22.72 22.72h663.104c12.096 0 22.72-10.592 22.72-22.72v-376.96c0-12.128-10.592-22.688-22.72-22.688h-663.104c-12.096 0-22.72 10.56-22.72 22.688v376.96z" />
<glyph unicode="&#xe63b;" glyph-name="large-operatingsystem" d="M592.672 455.424c0 40.608-32.864 73.472-73.472 73.472s-73.472-32.896-73.472-73.472c0-40.608 32.864-73.472 73.472-73.472s73.472 32.896 73.472 73.472zM459.488 297.184h-183.424l-56 59.328c-4.256 4.48-10.144 7.072-16.448 7.072h-149.376c-12.448 0-22.592-10.144-22.592-22.592v-64.736c0-0.64-0.128-1.152-0.128-1.792v-286.944c0-12.448 10.144-22.592 22.592-22.592h405.376c12.448 0 22.592 10.144 22.592 22.592v287.072c-0.128 12.448-10.144 22.592-22.592 22.592zM519.2 928.512c-260.896 0-473.056-212.192-473.056-473.056 0-17.088 1.024-34.048 2.688-50.592 1.792 0.128 3.488 0.512 5.408 0.512h40.096c-1.92 16.448-3.072 33.152-3.072 50.112 0 235.968 191.904 427.84 427.872 427.84s428-191.904 428-427.84c0-233.248-187.648-423.488-420.032-427.712v-43.424c0-0.512-0.128-1.152-0.128-1.664 257.28 4.224 465.344 214.624 465.344 472.8 0 260.864-212.32 473.056-473.088 473.056zM527.168 252.736c108.288 4.224 195.232 93.376 195.232 202.688 0 112-91.2 203.072-203.2 203.072s-203.072-91.072-203.072-203.072c0-41.888 12.704-80.8 34.56-113.152h58.432c-29.536 28.768-48.032 68.864-48.032 113.152 0 87.072 70.912 157.984 157.984 157.984 87.232 0 157.984-70.912 157.984-157.984 0-85.92-68.96-155.808-154.4-157.856 2.56-7.2 4.224-14.88 4.224-23.136l0.256-21.728z" />
<glyph unicode="&#xe63c;" glyph-name="large-opticaldrive" d="M623.136 755.904h-567.904c-13.088 0-23.712-10.592-23.712-23.712v-568.384c0-13.088 10.592-23.712 23.712-23.712h567.904c13.088 0 23.712 10.624 23.712 23.712v568.384c0 13.12-10.592 23.712-23.712 23.712zM543.2 426.912h-125.76l34.208-34.208c8.384-8.48 8.384-22.144 0-30.528-4.224-4.224-9.728-6.368-15.232-6.368s-11.072 2.112-15.232 6.368l-71.008 71.008c-0.192 0.192-0.288 0.512-0.384 0.672-1.728 1.824-3.264 3.936-4.224 6.368 0 0 0 0 0 0.064-0.096 0.192-0.096 0.416-0.192 0.608-0.864 2.208-1.248 4.544-1.344 6.848 0 0.736 0.096 1.44 0.096 2.208 0.096 1.824 0.48 3.52 1.056 5.312 0.192 0.768 0.48 1.44 0.768 2.080 1.056 2.304 2.4 4.544 4.256 6.368l70.048 70.048c8.384 8.384 22.048 8.384 30.528 0 8.384-8.384 8.384-22.048 0-30.528l-33.216-33.248h125.76c11.936 0 21.568-9.664 21.568-21.6-0.128-11.84-9.76-21.44-21.696-21.44v-0.032zM732.096 710.816c-14.432 0-28.416-1.44-42.144-3.744v-43.648c13.696 2.688 27.712 4.128 42.144 4.128 121.088 0 219.648-98.56 219.648-219.648 0-121.056-98.56-219.616-219.648-219.616-14.432 0-28.544 1.504-42.144 4.128v-43.648c13.792-2.208 27.808-3.648 42.144-3.648 144.896 0 262.816 117.952 262.816 262.816 0 144.96-117.92 262.88-262.816 262.88zM771.488 448.032c0 21.76-17.632 39.36-39.392 39.36-21.664 0-39.296-17.632-39.296-39.36 0-21.792 17.632-39.328 39.296-39.328 21.792 0 39.392 17.536 39.392 39.328zM850.4 448.032c0 65.184-53.088 118.272-118.304 118.272-14.944 0-29.088-2.88-42.144-7.904v-48.256c12 8.192 26.56 13.088 42.144 13.088 41.44 0 75.168-33.696 75.168-75.168 0-41.44-33.728-75.040-75.168-75.040-15.584 0-30.144 4.832-42.144 13.088v-48.256c13.056-5.088 27.328-7.904 42.144-7.904 65.216-0.16 118.304 52.832 118.304 118.080z" />
<glyph unicode="&#xe63d;" glyph-name="large-package" d="M769.984 488.384l200.8 135.584-445.6 300.608c-7.744 5.216-17.76 5.216-25.376 0l-188.096-126.976 458.304-309.248zM271.104 770.368l-216.896-146.496 458.304-309.376 216.896 146.496zM535.2 275.008v-297.824l448.288 302.656c6.208 4.192 10.016 11.296 10.016 18.784v285.76l-458.304-309.376zM489.792 275.008l-458.304 309.376v-285.76c0-7.616 3.808-14.592 10.016-18.784l448.288-302.656v297.824z" />
<glyph unicode="&#xe63e;" glyph-name="large-partners" d="M102.368 507.904c-9.088 22.72-25.76 65.12-27.264 84.8-1.504 22.72 40.896 127.2 53.024 143.872l4.544 4.544c39.392 48.48 54.56 60.576 60.608 63.616 18.176-1.504 101.472-30.272 168.128-56.032 12.128-4.544 24.224 1.504 28.768 13.632 6.048 12.096 0 24.224-12.096 28.768-110.56 43.936-175.68 62.112-193.856 59.072-22.752-6.048-50.016-34.816-86.336-80.256l-4.544-4.544c-15.136-18.176-66.656-137.824-63.616-175.68 3.040-33.312 28.768-93.888 31.808-99.936 3.008-9.088 12.128-13.632 21.216-13.632 3.040 0 6.048 0 9.088 1.504 10.592 4.544 16.672 18.176 10.592 30.272h-0.064zM396.192 206.496c6.048 7.616 9.088 16.672 9.088 25.824 0 21.184-15.136 39.328-36.352 42.368v0c6.048 10.56 10.592 21.184 10.592 34.816 0 34.816-27.264 62.048-62.080 62.048-6.048 0-12.096-1.504-18.176-3.008 6.048 9.12 9.088 19.68 9.088 31.808 0 31.808-25.76 59.104-59.072 59.104-12.128 0-24.224-4.544-33.312-10.592 0 0 0 0 0 1.504 0 22.72-18.176 40.896-40.896 40.896-9.088 0-16.672-3.040-24.224-7.584-3.040-1.504-6.048-4.544-7.584-6.048l-53.024-77.248c-3.040-4.576-4.544-10.56-4.544-16.64 16.64-162.048 187.808-239.328 195.36-242.304 3.008-1.504 6.048-1.504 9.088-1.504 4.544 0 9.088 1.504 12.096 3.072l80.256 51.424c1.504 1.568 4.544 3.072 6.048 3.072v0l1.504 1.504c1.504 1.504 1.504 1.504 3.040 3.008s3.008 3.008 3.008 4.512h0.096zM809.696 332.256c-9.088-9.12-9.088-22.752 0-31.808 9.056-9.12 9.056-25.76 0-34.88-9.088-9.056-25.76-9.056-34.88 0v0 0 0 0l-184.736 181.728c-9.088 9.088-22.72 9.088-31.808 0-9.056-9.088-9.056-22.72 0-31.808l186.272-181.696c10.592-12.128 10.592-30.304 0-40.928-12.128-12.128-30.272-12.128-42.4 0 0 0 0 0-1.504 0l-31.776 30.304-149.92 146.88c-9.088 9.12-22.72 9.12-31.808 0-9.088-9.056-9.088-22.688 0-31.744l149.92-146.944c12.096-13.632 12.096-33.312 0-46.944-12.128-12.128-34.848-12.128-46.944 0v0l-116.608 116.576c-9.088 9.12-22.72 9.12-31.808 0-9.088-9.056-9.088-22.688 0-31.808l87.84-87.808c0 0 0 0 0-1.504 12.128-12.128 12.128-31.808 0-43.936-10.624-10.56-27.264-12.128-39.36-4.512l-53.024 48.448c-9.088 9.12-24.224 7.616-31.808-1.504-9.088-9.056-7.584-24.256 1.504-31.808l45.44-42.368c0 0 0-1.504 1.504-1.504 1.504-1.504 4.544-3.072 6.048-4.576v0 0c13.632-10.56 30.272-16.64 46.944-16.64 21.216 0 39.36 7.552 54.528 22.688 9.088 9.056 15.168 21.248 19.68 33.312 10.592-4.576 21.184-7.552 33.312-7.552 21.216 0 40.864 7.552 56.032 22.688 9.088 9.12 16.672 21.248 19.712 33.312 10.592-4.512 22.72-7.552 33.312-7.552 19.68 0 37.888 7.552 52.992 22.688 15.2 15.2 21.248 33.312 21.248 53.056 18.144 0 34.848 7.552 46.944 19.68 27.264 27.264 27.264 72.672 0 99.936-12.16 7.584-25.792 7.584-34.848-1.472v0zM994.432 476.096c0 16.64-3.040 31.808-9.12 46.944 0 1.504-1.504 4.544-3.040 6.048l-1.504 1.504c-3.008 6.048-6.016 10.592-10.592 16.672l-84.8 133.28-1.504 1.504c-9.056 15.136-22.688 25.76-39.36 28.768v0c-4.512 1.504-9.12 1.504-15.136 1.504-4.544 0-9.12 0-13.664-1.504l-80.256-3.040h-69.664l-96.928 51.488c-6.048 3.040-13.632 3.040-19.68 1.504l-131.776-49.984-80.288-28.768c-9.088-3.008-15.136-10.592-15.136-19.68-1.504-9.088 3.040-18.176 12.128-22.72l74.208-42.4c4.544-1.504 9.088-3.040 12.096-3.040l157.504 6.048 81.792-77.248 62.080-59.040 71.2-69.696c1.504-1.504 1.504-1.504 3.072-3.008l1.504-1.504c0 0 0 0 1.504-1.504 21.184-19.68 48.48-30.24 78.784-30.24 1.504 0 3.008 0 4.512 0v0 0c63.616 4.512 112.064 56.064 112.064 118.112v0z" />
<glyph unicode="&#xe63f;" glyph-name="large-performance" d="M511.328 821.024c-205.344 0-372.352-166.976-372.352-372.352s167.104-372.352 372.352-372.352c205.376 0 372.352 166.976 372.352 372.352s-166.976 372.352-372.352 372.352zM678.688 630.88l44.256 42.112c8.96 8.576 23.296 8.192 31.84-0.768s8.192-23.296-0.768-31.744l-44.256-42.112c-4.48-4.224-10.368-6.272-16.128-6.144s-11.392 2.432-15.744 6.912c-8.576 8.96-8.192 23.168 0.768 31.744zM490.72 756.512c0 12.416 10.112 22.528 22.528 22.528s22.528-10.112 22.528-22.528v-61.152c0-12.416-10.112-22.528-22.528-22.528s-22.528 10.112-22.528 22.528v61.152zM270.784 672.192c8.576 8.96 22.784 9.344 31.84 0.768l44.256-42.112c8.96-8.576 9.344-22.784 0.768-31.84-4.224-4.48-9.984-6.784-15.744-6.912s-11.52 1.92-16.128 6.144l-44.256 42.112c-8.96 8.704-9.344 22.88-0.768 31.84zM212.288 428.608c-12.416 0-22.528 10.112-22.528 22.528s10.112 22.528 22.528 22.528h61.024c12.416 0 22.528-10.112 22.528-22.528s-10.112-22.528-22.528-22.528h-61.024zM347.040 262.4l-48.64-36.992c-9.856-7.552-24.064-5.632-31.488 4.224-7.552 9.856-5.632 24.064 4.224 31.488l48.64 36.992c4.992 3.712 11.008 5.12 16.64 4.352 5.76-0.768 11.136-3.712 14.848-8.704 7.68-9.728 5.76-23.936-4.224-31.36zM555.328 415.68c-19.456-23.296-54.112-26.368-77.408-6.912s-26.368 54.24-6.912 77.408c19.456 23.296 54.112 26.368 77.408 6.912 1.28-1.024 2.176-2.304 3.328-3.456l119.104 45.44c11.648 4.48 24.576-1.408 29.056-13.056s-1.408-24.576-13.056-29.056l-119.104-45.44c-0.512-11.136-4.608-22.4-12.416-31.84zM758.528 229.632c-7.552-9.856-21.632-11.776-31.488-4.224l-48.64 36.992c-9.856 7.552-11.776 21.632-4.224 31.488 3.712 4.992 9.216 7.936 14.848 8.704s11.648-0.64 16.64-4.352l48.608-36.992c9.856-7.68 11.776-21.76 4.224-31.616zM813.28 428.608h-61.024c-12.416 0-22.528 10.112-22.528 22.528s10.112 22.528 22.528 22.528h61.024c12.416 0 22.528-10.112 22.528-22.528 0-12.544-10.112-22.528-22.528-22.528zM511.328 928.512c-264.608 0-479.808-215.232-479.808-479.808s215.232-479.808 479.808-479.808c264.608 0 479.808 215.232 479.808 479.808s-215.232 479.808-479.808 479.808zM511.328 31.296c-230.176 0-417.376 187.2-417.376 417.376s187.2 417.376 417.376 417.376c230.048 0 417.376-187.2 417.376-417.376s-187.328-417.376-417.376-417.376z" />
<glyph unicode="&#xe640;" glyph-name="large-phone" d="M335.328 621.696l-236.864 237.12 59.232 59.072c14.112 14.112 37.184 14.112 51.392 0l185.472-185.728c14.112-14.112 14.112-37.28 0-51.392l-59.2-59.072zM686.048 271.008l237.12-236.864 59.232 59.072c14.112 14.112 14.112 37.28 0 51.392l-185.856 185.6c-14.080 14.080-37.184 14.080-51.392 0l-59.072-59.232zM668.096 255.104c0 0-54.496-56.544-229.824 118.816s-118.816 229.824-118.816 229.824l-238.048 237.92c-127.808-127.808 5.504-385.184 222.4-602.176s474.4-350.176 602.176-222.4l-237.92 238.048z" />
<glyph unicode="&#xe641;" glyph-name="large-photos" d="M159.136 540.64h112.64v-52.576h-112.64v52.576zM970.176 663.616h-92.992v48.832c0 12.416-10.048 22.496-22.496 22.496h-240.256c-12.384 0-22.496-10.080-22.496-22.496v-48.832h-537.984c-12.384 0-22.496-10.080-22.496-22.496v-465.568c0-12.448 10.080-22.496 22.496-22.496h916.128c12.384 0 22.496 10.048 22.496 22.496v465.568c0.064 12.384-10.016 22.496-22.432 22.496h0.032zM316.832 465.6c0-12.384-10.080-22.496-22.496-22.496h-157.696c-12.416 0-22.496 10.080-22.496 22.496v97.568c0 12.384 10.080 22.496 22.496 22.496h157.728c12.384 0 22.496-10.080 22.496-22.496v-97.568zM732.672 218.688c-102.496 0-185.952 83.328-185.952 185.888 0 102.592 83.36 185.92 185.952 185.92 102.432 0 185.888-83.328 185.888-185.92s-83.424-185.888-185.888-185.888zM856.064 448.288c-3.616 1.152-7.552 0.384-10.432-2.016-9.12-7.392-20-11.36-31.328-11.36-27.68 0-50.304 22.496-50.304 50.272 0 10.656 3.488 20.96 10.016 29.792 2.176 2.976 2.816 6.912 1.568 10.464s-4.256 6.24-7.936 7.104c-10.368 2.688-20.736 4.128-30.944 4.32h-3.36c-73.12 0-134.368-57.952-136.576-129.184-1.12-34.752 11.36-67.936 35.36-93.376 24.864-26.432 59.008-41.44 96.128-42.304h3.616c74.112 0 134.016 56.672 136.512 129.184 0.384 13.44-1.312 26.688-4.864 39.392-1.088 3.744-3.904 6.528-7.456 7.712v0z" />
<glyph unicode="&#xe642;" glyph-name="large-ports" d="M957.6 675.776c19.712 0 35.488-15.872 35.488-35.488v-384.448c0-19.616-15.872-35.552-35.488-35.552h-890.432c-19.712 0-35.68 15.936-35.68 35.552v384.32c0 19.616 15.968 35.488 35.68 35.488l890.432 0.128zM516.64 372.928c0-16.512 11.36-37.376 25.248-46.304l13.184-8.448c13.952-8.864 38.752-16.256 55.36-16.256h194.72c16.544 0 41.44 7.328 55.392 16.256l13.184 8.448c13.824 8.928 25.184 29.824 25.184 46.304v1.248c0 16.576-13.472 30.112-30.112 30.112h-322.016c-16.544 0-30.112-13.44-30.112-30.112l-0.032-1.248zM195.84 348.32c0 19.552-15.68 35.136-35.104 35.136-19.328 0-35.104-15.552-35.104-35.136 0-19.328 15.68-35.072 35.104-35.072s35.104 15.744 35.104 35.072zM270.464 343.616c0-16.64 13.472-30.112 30.112-30.112h54.624c16.64 0 30.112 13.376 30.112 30.112v10.176c0 16.512-13.376 30.112-30.112 30.112h-54.624c-16.544 0-30.112-13.44-30.112-30.112v-10.176zM385.184 557.12c0 20.384-16.448 37.024-36.832 37.024h-185.888c-20.288 0-36.832-16.64-36.832-37.024v-56.256c0-20.192 16.544-36.832 36.832-36.832h185.792c20.48 0 36.832 16.544 36.832 36.832l0.096 56.256zM866.464 493.44c17.984 0 32.512 15.968 32.512 35.488 0 19.712-14.528 35.68-32.512 35.68h-317.248c-18.080 0-32.512-15.968-32.512-35.68 0-19.52 14.56-35.488 32.512-35.488h317.248z" />
<glyph unicode="&#xe643;" glyph-name="large-powersupply" d="M789.6 668.224c-1.312 21.28-17.568 43.84-45.088 43.84h-73.6v172.704c0 24.96-20.256 45.248-45.216 45.248s-45.216-20.288-45.216-45.248v-172.832h-141.44v172.832c0 24.96-20.256 45.248-45.248 45.248-24.96 0-45.216-20.256-45.216-45.248v-172.832h-73.408c-27.68 0-43.968-22.848-45.248-45.632v-45.728c0-21.376 12.672-38.080 31.52-43.424 11.776-107.616 35.36-192.864 70.368-253.312 0 0 45.088-99.424 132.736-99.424v-210.304c0-24.928 20.256-45.184 45.216-45.184s45.216 20.256 45.216 45.184v210.56c73.152 0 133.152 99.712 133.152 99.712 34.336 61.504 57.696 149.12 69.6 260.608 20.384 5.76 31.52 24.864 31.904 43.168v40.096l-0.032-0.032zM600.224 484.768l-111.104-171.424c-2.176-2.848-3.744-4.736-6.656-4.384-3.072 0.544-5.28 3.104-4.96 6.112l35.616 133.152-68.8-0.128c-2.592 0.128-4.384-0.128-6.016 1.408-1.664 1.536-2.336 3.84-1.696 5.92l119.808 162.848c2.848 3.712 3.744 4.864 6.848 4.352 3.072-0.384 5.088-3.072 5.088-6.144l-35.232-124.16 59.84-0.128c2.144 0.384 4.224-0.128 5.76-1.664 1.44-1.408 2.080-3.744 1.568-5.792h-0.064z" />
</font>
</defs>
</svg>
